<?xml version="1.0" encoding="utf-8"?>
<!-- Generator: Adobe Illustrator 16.0.0, SVG Export Plug-In . SVG Version: 6.00 Build 0)  -->
<!DOCTYPE svg PUBLIC "-//W3C//DTD SVG 1.1//EN" "http://www.w3.org/Graphics/SVG/1.1/DTD/svg11.dtd">
<svg version="1.1" xmlns="http://www.w3.org/2000/svg" xmlns:xlink="http://www.w3.org/1999/xlink" x="0px" y="0px"
	 width="444.044px" height="440.379px" viewBox="0 0 444.044 440.379" enable-background="new 0 0 444.044 440.379"
	 xml:space="preserve">
<symbol  id="THe_orchardist" viewBox="-272.655 -238.569 546.341 477.475">
	<g>
		
			<text transform="matrix(1 0 0 -1 -272.6133 203.7515)" fill="#9D3040" font-family="'Archer-Book'" font-size="42" letter-spacing="-1">The Orchardist</text>
	</g>
	<polygon fill="none" points="-269.604,186.421 270.396,186.421 270.396,-238.569 -269.604,-238.569 	"/>
	<text transform="matrix(1 0 0 -1 -269.6055 165.8311)"><tspan x="0" y="0" fill="#626464" font-family="'Archer-Light'" font-size="29">A Novel, subtitle goes here</tspan><tspan x="0" y="38" fill="#626464" font-family="'ProximaNovaT-Thin'" font-size="21">I told him about the nucleotides, the genetic test, the prognosis. </tspan><tspan x="0" y="66" fill="#626464" font-family="'ProximaNovaT-Thin'" font-size="21">I told him that atrophying of basal ganglia starts years before </tspan><tspan x="0" y="94" fill="#626464" font-family="'ProximaNovaT-Thin'" font-size="21">symptoms present, and that right now – in this car, in this </tspan><tspan x="0" y="122" fill="#626464" font-family="'ProximaNovaT-Thin'" font-size="21">moment – parts of my brain were dying, parts that I didn’t know I </tspan><tspan x="0" y="150" fill="#626464" font-family="'ProximaNovaT-Thin'" font-size="21">needed, but parts that I would never, never be able to get back. I </tspan><tspan x="0" y="178" fill="#626464" font-family="'ProximaNovaT-Thin'" font-size="21">told him that there wasn’t an emotion or an impulse or a </tspan><tspan x="0" y="206" fill="#626464" font-family="'ProximaNovaT-Thin'" font-size="21">stumble that I could completely trust; I told him that one day – if </tspan><tspan x="0" y="234" fill="#626464" font-family="'ProximaNovaT-Thin'" font-size="21">I let it – everything I did and said and thought would be nothing </tspan><tspan x="0" y="262" fill="#626464" font-family="'ProximaNovaT-Thin'" font-size="21">more than the entropic implosion of a condemned building or a </tspan><tspan x="0" y="290" fill="#626464" font-family="'ProximaNovaT-Thin'" font-size="21">dying star.</tspan></text>
</symbol>
<symbol  id="archer_4_" viewBox="-105.487 -40.31 178.313 62.174">
	<g>
		<g>
			<g>
				
					<text transform="matrix(1 0 0 -1 -96.7559 -35.9854)" fill="#8D8C8C" font-family="'Scout-Regular'" font-size="17.2976" letter-spacing="2">FOUNDATION</text>
			</g>
			<g>
				<path fill="#CA571F" d="M-46.555,5.065c0.692-1.106,0.767-2.303,0.767-2.766v-12.497h-3.741v-3.139h11.235v3.139h-3.853v12.59
					c0,3.081-1.932,8.294-9.172,8.294c-2.704,0-5.012-1.3-7.056-3.976l-0.189-0.249v15.403h-7.438v-3.139h3.797v-28.924h-3.797
					v-3.139h11.18v3.139h-3.742V-0.15c0,5.257,4.675,7.438,7.178,7.438C-49.103,7.289-47.478,6.541-46.555,5.065z"/>
				<path fill="#CA571F" d="M-16.663-10.627c0.99-1.923,3.352-3.072,6.315-3.072c2.537,0,5.288,1.198,6.491,2.355
					c0.82,0.819,1.265,1.739,1.265,2.659c0,1.595-1.155,2.798-2.687,2.798c-1.297,0-2.239-0.966-2.239-2.296
					c0-0.554,0.171-1.086,0.481-1.5l0.073-0.097L-7.07-9.838c-0.821-0.457-2.173-0.74-2.956-0.74c-1.509,0-2.785,0.566-3.252,1.441
					c-0.319,0.572-0.404,1.925-0.404,2.56V7.099h7.315v3.14h-7.315v7.209l-3.585-1.424v-5.786h-4.412v-3.14h4.412V-7.38
					C-17.267-8.753-17.069-9.816-16.663-10.627z"/>
				<polygon fill="#CA571F" points="-67.616,7.099 -67.616,10.239 -78.404,10.239 -78.404,7.099 -74.364,7.099 -78.771,-7.265 
					-85.447,7.559 -87.376,7.559 -94.109,-7.264 -98.514,7.099 -94.698,7.099 -94.698,10.239 -105.487,10.239 -105.487,7.099 
					-102.016,7.099 -95.465,-13.336 -93.543,-13.336 -86.551,2.002 -79.615,-13.336 -77.462,-13.336 -70.969,7.099 				"/>
				<polygon fill="#CA571F" points="-34.342,10.239 -34.342,7.099 -30.321,7.099 -30.321,-10.198 -34.342,-10.198 -34.342,-13.336 
					-22.659,-13.336 -22.659,-10.198 -26.679,-10.198 -26.679,10.239 				"/>
				<path fill="#CA571F" d="M-28.975,21.84c-1.609,0-3.021-1.412-3.021-3.021c0-1.607,1.358-2.965,2.966-2.965
					c1.579,0,2.964,1.386,2.964,2.965C-26.066,20.428-27.425,21.84-28.975,21.84z"/>
				<polygon fill="#CA571F" points="0.333,10.239 0.333,7.099 4.354,7.099 4.354,-10.198 0.333,-10.198 0.333,-13.336 
					12.016,-13.336 12.016,-10.198 7.995,-10.198 7.995,10.239 				"/>
				<path fill="#CA571F" d="M5.699,21.84c-1.609,0-3.021-1.412-3.021-3.021c0-1.607,1.358-2.965,2.965-2.965
					c1.58,0,2.966,1.386,2.966,2.965C8.609,20.428,7.25,21.84,5.699,21.84z"/>
				<path fill="#CA571F" d="M35.566,5.393C36.465,4.187,36.6,2.73,36.6,1.969v-12.167h-3.742v-3.139h11.18v3.139h-3.797v12.59
					c0,6.547-5.773,8.294-9.184,8.294c-3.229,0-5.164-1.572-7.074-3.931l-0.188-0.232v3.716h-7.438v-3.14h3.797v-17.297h-3.797
					v-3.139h11.18v3.139h-3.741V-0.15c0,5.099,4.292,7.474,7.192,7.474C33.069,7.324,34.609,6.674,35.566,5.393z"/>
				<path fill="#CA571F" d="M67.437,10.239L67.437,10.239l-2.107,0V6.882l-0.028,0.05c-1.23,2.175-4.385,3.754-7.502,3.754
					c-3.301,0-6.31-1.304-8.473-3.672c-2.066-2.262-3.204-5.263-3.204-8.45c0-7.018,5.778-11.871,11.175-11.871
					c3.017,0,5.658,1.421,7.849,3.952l0.186,0.214v-4.195c0-2.973-1.61-8.085-7.477-8.085c-2.95,0-4.378,0.738-4.746,0.964
					l-0.099,0.061l0.07,0.093c0.31,0.413,0.481,0.946,0.481,1.5c0,1.33-0.941,2.295-2.239,2.295c-1.532,0-2.687-1.203-2.687-2.798
					c0-0.958,0.415-1.878,1.198-2.661c1.274-1.226,4.052-2.538,8.021-2.538c7.952,0,11.118,5.745,11.118,11.898V7.099h3.854v3.14
					H67.437z M57.951-9.938l-0.042,0c-4.772,0.031-8.33,3.846-8.33,8.557c0,4.991,3.571,8.643,8.554,8.643
					c2.988,0,7.197-2.834,7.197-8.186C65.331-6.173,61.579-9.938,57.951-9.938z"/>
			</g>
		</g>
	</g>
</symbol>
<symbol  id="footer_1_1_" viewBox="-800 -58 1600 153">
	<polygon fill="#B6B6B6" points="800,-58 -800,-58 -800,95 800,95 	"/>
	<text transform="matrix(1 0 0 -1 46.9155 -24)" fill="#FFFFFF" font-family="'ProximaNova-Regular'" font-size="11">PRIVACY &amp; TERMS </text>
	<text transform="matrix(1 0 0 -1 193.6841 -23.9995)" fill="#FFFFFF" font-family="'ProximaNova-Regular'" font-size="11">© MRS GILES WHITING FOUNDATION</text>
	<text transform="matrix(1 0 0 -1 429.1099 -23.9995)" fill="#FFFFFF" font-family="'ProximaNova-Regular'" font-size="11">Site by PASTPRESENTFUTURE</text>
	<text transform="matrix(1 0 0 -1 -585 58)"><tspan x="0" y="0" fill="#FFFFFF" font-family="'ProximaNova-Bold'" font-size="13" letter-spacing="1">FOUNDATION</tspan><tspan x="0" y="19" fill="#FFFFFF" font-family="'ProximaNova-Regular'" font-size="11">HISTORY</tspan><tspan x="0" y="34" fill="#FFFFFF" font-family="'ProximaNova-Regular'" font-size="11">PEOPLE</tspan><tspan x="0" y="49" fill="#FFFFFF" font-family="'ProximaNova-Regular'" font-size="11">CONTACT</tspan></text>
	<text transform="matrix(1 0 0 -1 -456 58)"><tspan x="0" y="0" fill="#FFFFFF" font-family="'ProximaNova-Bold'" font-size="13" letter-spacing="1">LITERATURE</tspan><tspan x="0" y="19" fill="#FFFFFF" font-family="'ProximaNova-Regular'" font-size="11">Whiting Awards</tspan><tspan x="0" y="34" fill="#FFFFFF" font-family="'ProximaNova-Regular'" font-size="11">ABOUT</tspan><tspan x="0" y="49" fill="#FFFFFF" font-family="'ProximaNova-Regular'" font-size="11">WINNERS</tspan><tspan x="0" y="64" fill="#FFFFFF" font-family="'ProximaNova-Regular'" font-size="11">NEWS &amp; NEW WORK</tspan><tspan x="0" y="79" fill="#FFFFFF" font-family="'ProximaNova-Regular'" font-size="11">KEYNOTES</tspan><tspan x="0" y="94" fill="#FFFFFF" font-family="'ProximaNova-Regular'" font-size="11">OTHER PROGRAMS</tspan></text>
	<g>
		<path fill="#FFFFFF" d="M513,62v-2h-2v-3h2v-8h3v8h2.63c0,0,0.219,1,0.324,3H516v2.031c0,0.287,0.692-0.031,1.067-0.031H519v3
			h-2.613c-3.643,0-3.254-2.673-3.254-3.095"/>
		<path fill="#FFFFFF" d="M552.296,63.413c-0.691-0.306-1.436-0.514-2.213-0.606c0.795,0.477,1.405,1.231,1.693,2.132
			c-0.744-0.441-1.568-0.762-2.447-0.935c-0.853,0.91-2.147,1.405-3.541,1.15c-1.74-0.318-3.065-1.883-3.123-3.651
			c-0.011-0.349,0.021-0.69,0.1-1.015c-3.204,0.161-6.042,1.695-7.944,4.027c-0.332-0.57-0.522-1.232-0.522-1.938
			c0-1.337,0.547-2.516,1.581-3.207c-0.633,0.021-0.878,0.193-1.878,0.482c0-0.016,0-0.032,0-0.049c0-1.867,1.46-3.424,3.223-3.778
			c-0.322-0.088-0.596-0.135-0.947-0.135c-0.25,0-0.457,0.023-0.691,0.068c0.49-1.53,1.93-2.645,3.615-2.676
			c-1.317-1.034-2.971-1.649-4.776-1.649c-0.312,0-0.614,0.018-0.914,0.054c1.704-1.093,3.73-1.731,5.906-1.731
			c7.088,0,10.966,5.872,10.966,10.965c0,0.167-0.003,0.333-0.012,0.498C551.125,61.963,551.778,62.641,552.296,63.413"/>
		<path fill="#FFFFFF" d="M585,50h-19v14h19V50z"/>
		<path fill="none" stroke="#B6B6B6" stroke-width="1.1761" stroke-miterlimit="10" d="M585.631,64.139L575.5,55.607l-10.131,8.531"
			/>
		<path fill="none" stroke="#B6B6B6" stroke-width="1.1761" stroke-miterlimit="10" d="M577.153,57l8.478-7.393 M565.369,49.607
			L573.847,57"/>
	</g>
	<text transform="matrix(1 0 0 -1 -294 58)"><tspan x="0" y="0" fill="#FFFFFF" font-family="'ProximaNova-Bold'" font-size="13" letter-spacing="1">HUMANITIES</tspan><tspan x="0" y="19" fill="#FFFFFF" font-family="'ProximaNova-Regular'" font-size="11">About</tspan><tspan x="0" y="34" fill="#FFFFFF" font-family="'ProximaNova-Regular'" font-size="11">past programs</tspan></text>
	<polygon fill="#FFFFFF" points="576.833,67.667 576.833,67.667 576.833,68.167 576.833,68.167 	"/>
	<polygon display="none" fill="none" points="-800,95 800,95 800,-58 -800,-58 	"/>
</symbol>
<symbol  id="news_text" viewBox="-182.57 -60.908 365.142 121.026">
	<polygon fill="none" points="-182.57,57.579 182.572,57.579 182.572,-60.908 -182.57,-60.908 	"/>
	<text transform="matrix(1 0 0 -1 -182.5703 43.3779)"><tspan x="0" y="0" fill="#626464" font-family="'ProximaNova-Semibold'" font-size="20">Margaret Talbot on Roald Dahl in The New </tspan><tspan x="0" y="24" fill="#626464" font-family="'ProximaNova-Semibold'" font-size="20">Yorker </tspan><tspan x="58.52" y="24" fill="#626464" font-family="'Archer-BookItalic'" font-size="15.0727">August 29, 2014</tspan><tspan x="0" y="52" fill="#626464" font-family="'ProximaNovaT-Thin'" font-size="15">In “Meant for Kids,” Margaret Talbot (Whiting 1999) writes </tspan><tspan x="0" y="72" fill="#626464" font-family="'ProximaNovaT-Thin'" font-size="15">on the meaning of Penguin’s rebranding of Roald Dahl’s </tspan><tspan x="0" y="92" fill="#626464" font-family="'ProximaNovaT-Thin'" font-size="15">Charlie and the Chocolate Factory in The New...  </tspan><tspan x="299.916" y="92" fill="#8D8C8C" font-family="'ProximaNova-Bold'" font-size="12" letter-spacing="1">More &gt;</tspan></text>
</symbol>
<g id="Art">
	<g id="orchardist_unit_1_5_col">
	</g>
	<g id="footer_1">
	</g>
	<g id="archer">
	</g>
	<g id="New_Symbol">
		<g id="archer_1_">
		</g>
	</g>
	<g id="archer_2_">
	</g>
	<g id="New_Symbol_1">
	</g>
	<g id="New_Symbol_4">
	</g>
	<g>
		<g>
			<path fill="#838357" d="M303.874,358.782c-3.19,0-6.237,0.036-9.283-0.009c-3.318-0.049-6.634-0.199-9.953-0.251
				c-1.692-0.027-3.386,0.061-5.08,0.103c-1.085,0.027-1.562,0.769-1.533,1.674c0.142,4.428-2.117,7.989-4.354,11.437
				c-1.63,2.513-3.683,4.714-6.8,5.818c-4.665,1.652-9.423,2.354-14.319,2.495c-2.502,0.072-4.633-0.925-6.773-2.065
				c-1.65-0.879-3.439-1.493-5.141-2.281c-0.681-0.315-1.283-0.797-1.937-1.178c-0.777-0.453-1.783-0.702-2.317-1.348
				c-1.507-1.821-3.715-3.003-4.743-5.246c-0.133-0.291-0.241-0.701-0.479-0.819c-1.769-0.882-1.772-2.583-2.009-4.175
				c-0.418-2.819-0.216-5.511,1.092-8.154c0.912-1.844,1.455-3.879,2.052-5.862c0.121-0.4-0.171-1.002-0.426-1.416
				c-0.229-0.37-0.629-0.684-1.023-0.895c-2.506-1.341-4.25-3.495-6.051-5.592c-0.126-0.146-0.246-0.38-0.4-0.409
				c-1.862-0.352-2.658-1.909-3.769-3.162c-0.571-0.644-1.592-0.865-2.275-1.438c-1.242-1.042-2.298-2.318-3.586-3.292
				c-3.029-2.292-5.429-5.258-8.407-7.608c-1.797-1.418-3.337-3.161-5.036-4.708c-1.802-1.642-3.703-3.175-5.474-4.848
				c-1.729-1.634-3.347-3.384-5.013-5.084c-0.273-0.279-0.498-0.636-0.821-0.831c-2.492-1.499-4.458-3.584-6.452-5.65
				c-1.601-1.658-3.267-3.254-4.904-4.878c-0.093-0.092-0.216-0.169-0.272-0.28c-1.31-2.58-3.949-3.803-5.849-5.77
				c-2.417-2.502-4.655-5.182-6.909-7.836c-0.446-0.524-0.599-1.291-0.918-1.931c-0.668-1.341-1.565-2.468-2.772-3.409
				c-0.738-0.575-1.221-1.477-1.822-2.229c-0.316-0.395-0.63-0.792-0.962-1.174c-1.707-1.959-3.321-4.011-5.157-5.842
				c-1.755-1.75-3.167-3.737-4.661-5.682c-0.476-0.62-1.2-0.915-2.218-0.725c-5.024,0.937-10.11,1.198-15.198,0.679
				c-1.427-0.146-2.799-0.799-4.204-1.195c-2.626-0.739-5.339-1.253-7.867-2.241c-3.319-1.297-5.531-3.82-6.078-7.425
				c-0.331-2.176-0.306-4.411-0.374-6.621c-0.055-1.804-0.011-3.611-0.011-5.606c-0.995-0.069-2.018-0.163-3.042-0.207
				c-4.1-0.177-8.201-0.317-12.3-0.517c-1.746-0.085-3.44-0.703-5.249,0.024c-0.726,0.292-1.75-0.162-2.639-0.273
				c-1.546-0.193-3.103-0.608-4.635-0.529c-3.677,0.189-7.298-0.023-10.897-0.769c-0.305-0.063-0.634-0.008-1.289-0.008
				c-0.304,2.308-0.767,4.591-0.87,6.891c-0.168,3.772-0.109,7.555-0.133,11.333c-0.014,2.378-0.877,3.398-3.232,3.579
				c-0.762,0.058-1.65,0.042-2.299-0.293c-1.781-0.92-3.671-0.969-5.54-0.807c-2.957,0.255-5.845-0.128-8.768-0.418
				c-2.246-0.223-4.554-0.19-6.797,0.062c-1.978,0.222-3.896,0.354-5.815-0.186c-2.525-0.711-5.09-0.256-7.223,0.814
				c-1.45,0.728-2.756,1.247-4.307,1.251c-2.212,0.006-2.667-0.911-2.156-3.103c0.526-2.258,0.868-4.605,0.907-6.919
				c0.065-3.895-0.251-7.795-0.264-11.694c-0.017-5.181,0.199-10.363,0.123-15.542c-0.034-2.301-0.011-4.656-0.932-6.883
				c-0.423-1.025,0.311-1.641,1.228-1.822c1.082-0.214,2.198-0.271,3.302-0.355c3.443-0.259,6.886-0.521,10.332-0.734
				c1.169-0.072,2.348,0.012,3.521,0.001c5.475-0.046,10.95-0.166,16.424-0.127c3.645,0.026,7.29,0.256,10.933,0.429
				c2.383,0.113,3.172,0.45,3.655,3.08c0.542,2.949,0.086,5.84-0.116,8.755c-0.103,1.492-0.192,2.985-0.271,4.479
				c-0.061,1.155-0.092,2.238-0.634,3.381c-0.905,1.908-0.183,3.197,1.877,3.424c2.84,0.313,5.714,0.311,8.571,0.489
				c2.536,0.158,5.069,0.378,7.603,0.572c0.195,0.015,0.394,0.079,0.583,0.057c6.513-0.758,13.022,0.209,19.533,0.041
				c1.752-0.045,1.752-0.054,2.176-1.764c0.078-0.316,0.091-0.669,0.245-0.942c2.633-4.667,5.97-8.673,10.301-11.938
				c3.181-2.397,6.796-3.51,10.462-4.654c0.186-0.058,0.446-0.066,0.542-0.195c1.135-1.534,2.662-0.97,4.117-0.8
				c0.907,0.105,1.831,0.138,2.714,0.344c0.737,0.172,1.449,0.505,2.13,0.85c0.625,0.317,1.163,0.807,1.792,1.114
				c2.319,1.133,2.539,0.952,4.146-1.037c1.402-1.735,3.131-3.202,4.602-4.887c1.353-1.549,2.555-3.23,3.822-4.854
				c1.297-1.662,2.319-3.489,3.925-4.974c1.621-1.498,2.76-3.516,4.114-5.303c0.196-0.259,0.372-0.56,0.626-0.745
				c2.39-1.734,3.551-4.513,5.596-6.542c2.142-2.126,4.288-4.251,6.341-6.461c1.802-1.941,3.438-4.034,5.22-5.995
				c1.298-1.428,2.717-2.747,4.077-4.119c2.035-2.052,4.056-4.118,6.101-6.16c1.625-1.623,3.318-3.178,4.904-4.837
				c1.692-1.77,3.241-3.678,4.951-5.43c1.342-1.375,2.825-2.616,4.264-3.895c0.434-0.386,1.01-0.631,1.388-1.058
				c1.111-1.256,2.15-2.561,3.628-3.448c0.401-0.24,0.601-0.816,0.896-1.235c0.261-0.37,0.467-0.808,0.803-1.092
				c1.705-1.447,3.456-2.841,5.166-4.281c0.877-0.738,1.778-1.472,2.516-2.338c0.291-0.342,0.344-1.094,0.198-1.563
				c-0.647-2.083-1.497-4.105-2.103-6.2c-0.722-2.497-1.056-5.123-1.944-7.551c-1.353-3.702-1.632-7.492-1.517-11.341
				c0.054-1.785,0.353-3.529,1.325-5.171c0.603-1.019,0.618-2.377,0.944-3.57c0.15-0.549,0.287-1.181,0.646-1.581
				c1.596-1.774,3.243-3.503,4.932-5.19c0.488-0.487,1.155-0.808,1.772-1.149c1.7-0.939,3.398-1.885,5.13-2.762
				c2.737-1.386,5.544-2.574,8.624-3.015c0.72-0.104,1.401-0.483,2.241-0.786c-0.376-1.029-0.841-1.834-0.949-2.684
				c-0.343-2.704-0.614-5.421-0.798-8.141c-0.228-3.367-0.342-6.743-0.517-10.348c-2.267-0.209-4.521-0.631-6.765-0.58
				c-4.486,0.102-8.966,0.466-13.448,0.713c-0.515,0.028-1.039,0.047-1.548-0.014c-1.025-0.122-1.574-0.607-1.666-1.767
				c-0.3-3.763-0.665-7.523-1.12-11.271c-0.192-1.585-0.827-3.122-0.976-4.708c-0.171-1.821-0.192-3.691,0.028-5.503
				c0.207-1.701,0.324-3.274-0.026-5.027c-0.519-2.593-0.438-5.308-0.574-7.973c-0.04-0.778,0.019-1.567,0.099-2.345
				c0.142-1.393,0.596-1.828,1.988-1.88c0.715-0.026,1.434,0.069,2.152,0.084c4.301,0.089,8.607,0.085,12.904,0.276
				c5.268,0.234,10.528,0.647,15.794,0.938c1.101,0.061,2.215-0.039,3.318-0.122c3.186-0.24,6.366-0.545,9.553-0.753
				c2.177-0.142,2.57,0.079,2.753,2.274c0.249,2.977,0.276,5.978,0.275,8.968c-0.002,6.511-0.164,13.023-0.087,19.532
				c0.027,2.26,0.49,4.526,0.89,6.765c0.369,2.063-0.061,2.632-2.153,2.462c-2.264-0.184-4.527-0.488-6.792-0.503
				c-3.565-0.024-7.132,0.144-10.698,0.243c-0.377,0.01-0.751,0.1-1.273,0.173c-0.062,7.411,0.053,14.714,1.691,21.939
				c1.455,0.121,2.743,0.249,4.033,0.33c3.037,0.19,5.61,1.503,7.906,3.372c2.043,1.664,4.012,3.421,5.948,5.209
				c0.554,0.512,0.885,1.267,1.31,1.916c1.801,2.762,3.704,5.456,4.84,8.606c0.497,1.377,1.225,2.688,1.986,3.944
				c0.247,0.408,0.906,0.679,1.425,0.792c4.967,1.083,9.993,0.477,14.999,0.479c1.823,0,3.647,0.048,5.47,0.1
				c5.534,0.155,11.067,0.391,16.603,0.463c4.038,0.053,8.081-0.05,12.118-0.179c4.688-0.149,9.371-0.508,14.059-0.581
				c5.082-0.079,10.168,0.028,15.251,0.131c2.375,0.048,2.507-0.204,3.208-2.404c1.256-3.94,2.485-7.905,4.646-11.507
				c1.421-2.37,2.99-4.538,5.577-5.701c0.994-0.447,2.078-0.875,3.144-0.945c2.718-0.178,5.42-0.367,8.117,0.639
				c1.608,0.6,3.459,0.549,5.202,0.783c1.227,0.165,2.457,0.307,3.682,0.481c0.319,0.045,0.642,0.138,0.936,0.271
				c1.523,0.685,3.004,1.479,4.564,2.063c1.432,0.535,2.334,1.577,3.181,2.729c2.137,2.908,3.073,6.286,3.499,9.774
				c0.624,5.105,1.086,10.234,0.956,15.393c-0.084,3.347-0.988,6.361-3.421,8.807c-0.447,0.449-0.719,1.077-1.047,1.637
				c-0.196,0.334-0.258,0.8-0.53,1.028c-1.912,1.6-3.45,3.597-5.773,4.779c-2.117,1.077-4.266,1.814-6.584,2.219
				c-2.132,0.373-2.19,0.762-2.039,3.074c0.255,3.899,0.314,7.812,0.42,11.72c0.08,2.918,0.103,5.838,0.153,8.838
				c0.721,0.118,1.218,0.265,1.717,0.271c6.522,0.087,13.045,0.165,19.567,0.216c1.038,0.008,2.082-0.079,3.112-0.208
				c1.433-0.181,1.919,0.086,2.122,1.523c0.345,2.45,0.546,4.886,0.163,7.384c-0.365,2.375-0.356,4.805-0.544,7.208
				c-0.194,2.474-0.167,4.938-0.596,7.428c-0.492,2.851-0.221,5.84-0.221,8.769c0,2.214,0.112,4.429,0.144,6.643
				c0.021,1.457-0.258,1.56-1.725,1.478c-2.731-0.154-5.471-0.205-8.207-0.208c-3.131-0.003-6.264,0.063-9.395,0.16
				c-1.36,0.042-2.714,0.292-4.075,0.356c-5.537,0.262-11.075,0.477-16.611,0.744c-0.699,0.034-1.387,0.281-2.082,0.417
				c-0.378,0.074-0.786,0.237-1.14,0.164c-2.225-0.464-4.36,0.19-6.521,0.471c-2.564,0.332-3.309-0.349-3.315-2.941
				c-0.007-2.471-0.164-4.941-0.205-7.413c-0.016-0.972,0.164-1.947,0.152-2.919c-0.027-2.348,0.114-4.732-0.247-7.033
				c-0.319-2.036-0.189-3.994-0.051-5.998c0.144-2.079,0.158-4.167,0.26-6.249c0.125-2.538,0.396-5.076,0.371-7.612
				c-0.011-1.071-0.616-2.138-1.035-3.475c0.873-1.131,2.298-1.38,4.051-1.164c3.8,0.467,7.621,0.754,11.434,1.11
				c2.531,0.237,5.061,0.486,7.594,0.689c0.834,0.067,1.679,0.011,2.6,0.011c0.096-0.479,0.239-0.845,0.23-1.207
				c-0.149-6.445-0.303-12.891-0.488-19.335c-0.046-1.613-0.141-1.591-1.833-1.897c-1.925-0.348-3.746-0.913-5.095-2.529
				c-0.476-0.57-1.315-0.82-1.902-1.319c-0.769-0.654-1.458-1.403-2.167-2.126c-0.27-0.275-0.451-0.655-0.752-0.881
				c-2.335-1.751-4.272-3.803-5.951-6.245c-1.76-2.56-3.287-5.238-4.664-7.98c-0.725-1.443-0.721-3.269-0.953-4.935
				c-0.14-1.004-0.102-2.033-0.147-3.141c-0.753-0.036-1.257-0.078-1.761-0.081c-6.199-0.028-12.398-0.068-18.598-0.052
				c-0.818,0.002-1.634,0.309-2.455,0.455c-0.509,0.09-1.075,0.318-1.528,0.186c-2.511-0.734-4.939,0.339-7.429,0.254
				c-2.53-0.086-5.072,0.261-7.611,0.347c-4.164,0.141-8.318,0.289-12.485-0.255c-2.313-0.302-4.692-0.11-7.041-0.14
				c-1.026-0.013-2.03,0.14-2.962-0.646c-0.394-0.333-1.429-0.42-1.833-0.137c-1.834,1.29-3.764,0.579-5.668,0.524
				c-0.679-0.02-1.377,0.132-2.036,0.023c-2.443-0.406-4.991,0.929-7.388-0.499c-0.492-0.293-1.209-0.209-1.768-0.291
				c-0.136,0.34-0.25,0.48-0.22,0.572c1.624,4.917-0.544,9.356-1.919,13.827c-0.667,2.169-1.905,4.267-3.298,6.08
				c-1.502,1.956-2.896,4.022-4.946,5.594c-2.818,2.16-5.85,3.518-9.345,4.003c-1.726,0.24-2.233,0.891-2.156,2.652
				c0.251,5.785,0.58,11.566,0.841,17.351c0.22,4.876,0.795,9.783,0.464,14.625c-0.352,5.143-0.555,10.273-0.537,15.416
				c0.013,3.76,0.136,7.522,0.327,11.278c0.34,6.698,0.648,13.401,1.235,20.079c0.177,2.014,0.791,4,0.863,6.078
				c0.155,4.477,0.586,8.945,0.674,13.422c0.119,6.12,0.024,12.245,0.021,18.367c-0.003,4.423-0.054,8.847,0.003,13.269
				c0.05,3.904,0.303,7.806,0.315,11.709c0.011,3.573-0.22,7.146-0.271,10.721c-0.084,5.86,0.107,11.735-0.242,17.578
				c-0.204,3.412,0.228,6.756,0.223,10.133c-0.001,0.882,0.372,1.349,1.316,1.837c2.075,1.072,4.231,1.533,6.48,1.853
				c1.307,0.186,2.412,0.654,3.282,1.845c0.613,0.839,1.78,1.254,2.624,1.95c1.538,1.268,2.935,2.725,4.562,3.858
				c0.78,0.543,1.364,1.127,1.826,1.896c0.997,1.66,2.129,3.263,2.91,5.021c0.506,1.139,0.674,2.513,0.662,3.778
				c-0.018,1.986-0.06,2.09,1.982,2.079c6.847-0.04,13.693-0.098,20.54-0.147c0.829-0.006,1.658-0.001,2.556-0.001
				c0-0.693,0-1.131,0-1.57c0.003-1.88,0.062-3.761-0.001-5.638c-0.11-3.253-0.252-6.506-0.469-9.754
				c-0.103-1.542-0.432-3.066-0.612-4.604c-0.104-0.89,0.362-1.319,1.256-1.341c3.25-0.079,6.499-0.186,9.749-0.248
				c0.711-0.013,1.458,0.004,2.131,0.202c3.336,0.98,6.702,0.754,10.097,0.45c2.859-0.256,5.642,0,8.488,0.746
				c2.539,0.666,5.317,0.674,7.976,0.577c6.237-0.227,12.357,0.665,18.486,1.545c2.001,0.287,3.074,1.433,2.86,3.365
				c-0.343,3.101-0.585,6.286-1.523,9.227c-0.886,2.777-1.444,5.515-1.349,8.373c0.089,2.649,0.19,5.324,1.188,7.853
				c0.14,0.355,0.182,0.769,0.183,1.156c0.008,1.858,0.032,3.718-0.041,5.575c-0.056,1.439-0.457,1.844-1.901,1.91
				c-1.498,0.069-3.001,0.006-4.503-0.001c-4.238-0.021-8.476-0.063-12.713-0.059c-8.217,0.007-16.417-0.266-24.607-0.996
				c-2.507-0.223-5.061,0.067-7.592,0.149c-1.304,0.042-2.608,0.238-3.908,0.198c-2.192-0.067-3.2-1.258-3.185-3.372
				c0.01-1.429-0.188-2.858-0.213-4.289C303.845,363.651,303.874,361.447,303.874,358.782z M150.954,262.998
				c1.325,2.201,3.078,3.897,4.654,5.721c1.468,1.699,3.053,3.297,4.528,4.99c0.928,1.066,1.735,2.236,2.619,3.342
				c1.33,1.665,2.722,3.281,4.006,4.979c1.237,1.637,1.852,3.745,3.727,4.905c0.154,0.095,0.225,0.316,0.357,0.457
				c0.698,0.744,1.403,1.481,2.104,2.222c0.485,0.512,0.972,1.021,1.45,1.539c0.439,0.475,0.782,1.117,1.317,1.413
				c2.163,1.195,3.159,3.513,5.03,5.025c1.883,1.522,3.33,3.571,5.064,5.293c1.549,1.538,3.235,2.938,4.849,4.412
				c2.277,2.082,4.542,4.177,6.815,6.263c0.191,0.176,0.417,0.315,0.598,0.5c1.573,1.602,3.063,3.293,4.723,4.799
				c2.992,2.714,6.116,5.282,9.119,7.985c1.624,1.461,3.049,3.144,4.673,4.605c2.013,1.813,4.142,3.496,6.214,5.244
				c1.177,0.993,2.324,2.022,3.518,2.994c0.497,0.404,1.149,0.626,1.617,1.056c1.604,1.471,3.131,3.024,4.739,4.491
				c1.021,0.932,1.804,0.688,2.568-0.608c0.328-0.556,0.714-1.106,1.181-1.545c1.915-1.804,3.71-3.771,6.222-4.811
				c0.229-0.095,0.413-0.305,0.613-0.467c1.415-1.145,2.914-2.064,4.742-2.488c1.791-0.415,3.522-1.086,5.091-1.585
				c-0.103-2.542-0.283-4.811-0.27-7.079c0.033-5.4,0.17-10.8,0.24-16.2c0.068-5.214,0.124-10.429,0.149-15.643
				c0.025-5.333,0.021-10.666,0.005-15.999c-0.014-4.562-0.088-9.124-0.091-13.686c-0.002-5.207,0.17-10.417,0.033-15.62
				c-0.117-4.427-0.533-8.849-0.875-13.268c-0.29-3.747-0.733-7.483-0.974-11.232c-0.158-2.456,0.171-4.929-0.417-7.378
				c-0.359-1.494-0.677-3.041-0.688-4.567c-0.054-7.431-0.011-14.863,0.028-22.295c0.009-1.75,0.227-3.501,0.191-5.249
				c-0.066-3.179-0.194-6.36-0.399-9.533c-0.31-4.803-0.767-9.598-1.046-14.402c-0.17-2.928-0.165-5.869-0.156-8.803
				c0.003-1.137-0.354-1.705-1.545-1.713c-1.631-0.011-3.263-0.163-4.891-0.129c-2.538,0.053-5.072,0.28-7.609,0.309
				c-3.102,0.035-5.308-1.538-6.588-4.274c-0.509-1.087-1.184-1.795-2.25-2.308c-1.006,0.717-2.176,1.273-2.961,2.167
				c-1.832,2.085-4.361,3.447-5.896,5.832c-0.4,0.622-0.994,1.145-1.574,1.621c-2.137,1.751-4.307,3.463-6.462,5.193
				c-0.202,0.162-0.379,0.354-0.571,0.529c-2.268,2.073-3.926,4.686-6.295,6.715c-2.515,2.154-4.597,4.811-6.89,7.229
				c-2.026,2.137-3.972,4.366-6.147,6.341c-3.427,3.112-5.646,7.422-9.79,9.81c-0.095,0.054-0.117,0.225-0.188,0.332
				c-1.286,1.951-2.82,3.681-4.5,5.307c-0.76,0.735-1.227,1.763-1.923,2.575c-1.465,1.708-2.993,3.361-4.496,5.036
				c-1.933,2.154-3.872,4.305-5.796,6.467c-0.255,0.288-0.536,0.607-0.645,0.961c-0.609,1.972-1.738,3.508-3.327,4.859
				c-1.396,1.188-2.552,2.678-3.7,4.126c-0.643,0.811-1.157,1.624-2.144,2.159c-1.523,0.828-1.347,2.076-0.073,3.24
				c1.452,1.326,2.998,2.746,3.888,4.447c1.65,3.155,2.535,6.632,3.328,10.128c1.003,4.421,0.1,8.84,0.263,13.257
				c0.085,2.298-0.752,4.604-2.433,6.169c-1.57,1.461-3.274,2.999-5.607,3.327C151.706,262.529,151.438,262.755,150.954,262.998z
				 M247.677,148.371c4.248,0.207,8.84-0.913,12.884-3.859c0.971-0.708,1.725-1.719,2.706-2.409c2.62-1.84,3.788-4.747,5.178-7.368
				c1.083-2.041,2.391-4.229,2.13-6.792c-0.017-0.165,0.137-0.354,0.231-0.522c0.928-1.655,1.008-3.457,0.857-5.277
				c-0.212-2.563-1.469-4.803-2.426-7.105c-1.008-2.425-2.421-4.679-3.62-7.027c-0.59-1.156-1.098-2.286-2.373-2.959
				c-0.614-0.324-0.957-1.175-1.399-1.804c-0.26-0.37-0.394-0.87-0.723-1.143c-1.524-1.264-3.049-2.538-4.673-3.665
				c-0.835-0.58-2.038-0.67-2.798-1.31c-2.143-1.801-4.667-1.179-7.065-1.379c-0.682-0.057-1.377,0.014-2.055-0.068
				c-1.655-0.2-3.237-0.072-4.736,0.734c-1.059,0.57-2.132,1.117-3.223,1.623c-1.774,0.822-4.002,0.743-5.22,2.683
				c-0.147,0.235-0.548,0.347-0.854,0.44c-2.371,0.72-3.679,2.79-5.316,4.372c-1.167,1.128-2.277,2.688-2.612,4.23
				c-0.702,3.224-1.095,6.557-1.186,9.856c-0.06,2.172,0.438,4.421,1.041,6.534c0.605,2.12,0.306,4.531,1.951,6.359
				c0.294,0.328,0.206,0.989,0.323,1.49c0.428,1.829,0.598,3.78,1.367,5.454c1.192,2.595,2.472,5.143,4.662,7.22
				c1.388,1.315,2.639,2.177,4.535,2.104C239.165,148.634,243.071,148.521,247.677,148.371z M360.137,372.299
				c0-3.007,0.378-5.668-0.08-8.175c-0.909-4.97-0.845-9.818,0.283-14.724c0.64-2.783,1.065-5.622,1.454-8.454
				c0.199-1.455-0.202-1.902-1.6-2.126c-1.089-0.175-2.213-0.122-3.31-0.264c-1.864-0.241-3.721-0.546-5.577-0.843
				c-0.698-0.111-1.385-0.37-2.083-0.396c-2.864-0.111-5.735-0.079-8.594-0.25c-2.916-0.175-5.818-0.578-8.732-0.788
				c-2.848-0.204-5.669-0.669-8.573-0.225c-1.83,0.28-3.808,0.21-5.623-0.167c-3.226-0.669-6.386-1.052-9.672-0.452
				c-2.351,0.43-2.796,0.677-2.468,2.962c0.781,5.441,0.403,10.912,0.539,16.368c0.063,2.52-0.121,5.045-0.076,7.565
				c0.041,2.265,0.278,4.526,0.36,6.791c0.073,2.005,1.243,2.869,3.195,2.381c1.057-0.264,2.159-0.442,3.246-0.475
				c2.459-0.074,4.882-0.02,7.338,0.58c1.984,0.485,4.145,0.27,6.228,0.325c6.116,0.162,12.232,0.345,18.35,0.438
				c3.643,0.055,7.289-0.046,10.934-0.07C357.09,372.291,358.505,372.299,360.137,372.299z M403.552,209.852
				c0-1.668-0.009-2.887,0.002-4.106c0.029-3.246,0.029-6.493,0.116-9.737c0.043-1.626,0.399-3.252,0.355-4.872
				c-0.127-4.633,0.111-9.234,0.741-13.824c0.272-1.981-0.136-2.402-2.198-2.517c-0.846-0.047-1.697,0.009-2.545-0.014
				c-1.817-0.048-3.645-0.016-5.449-0.202c-3.031-0.313-6.064-0.633-9.101-0.312c-1.973,0.209-3.804-0.289-5.708-0.585
				c-2.554-0.397-5.18-0.323-7.774-0.471c-1.16-0.066-2.316-0.235-3.476-0.255c-0.897-0.016-1.812,0.264-2.692,0.17
				c-1.942-0.205-3.864-0.595-5.801-0.849c-1.781-0.233-3.608-0.623-5.238,0.78c0,1.64,0.03,3.267-0.005,4.893
				c-0.108,5.008-0.358,10.016-0.334,15.022c0.027,5.642,0.496,11.278,0.333,16.928c-0.046,1.578,0.427,1.993,1.983,1.945
				c5.601-0.171,11.202-0.338,16.801-0.563c3.501-0.141,6.98-0.283,10.479-0.853c3.832-0.624,7.798-0.457,11.707-0.566
				C398.212,209.796,400.68,209.852,403.552,209.852z M70.234,258.728c0-0.914,0.027-1.494-0.005-2.07
				c-0.091-1.605-0.276-3.208-0.295-4.814c-0.018-1.555,0.398-3.16,0.136-4.657c-0.503-2.875,1.13-5.425,0.943-8.212
				c-0.011-0.166,0.175-0.337,0.237-0.517c0.33-0.948,0.803-1.879,0.941-2.856c0.309-2.186,0.49-4.392,0.647-6.595
				c0.217-3.04,0.386-6.083,0.532-9.127c0.096-2.001-0.554-2.695-2.562-2.84c-0.516-0.037-1.038,0.014-1.557,0.01
				c-2.019-0.017-4.077,0.202-6.046-0.121c-2.397-0.393-4.764-0.582-7.184-0.508c-3.318,0.1-6.651,0.289-9.957,0.085
				c-5.673-0.35-11.088,1.091-16.587,1.989c-0.054,0.009-0.098,0.081-0.255,0.217c0.051,1.006,0.154,2.101,0.154,3.197
				c-0.001,3.702-0.124,7.406-0.043,11.105c0.123,5.667,0.38,11.332,0.569,16.998c0.013,0.387-0.063,0.777-0.104,1.165
				c-0.273,2.561-0.548,5.121-0.842,7.86c0.609,0,1.116,0.086,1.582-0.016c1.587-0.349,3.146-0.847,4.744-1.131
				c1.45-0.258,3.021-0.683,4.387-0.372c2.277,0.518,4.483,0.571,6.77,0.346c2.589-0.255,5.169-0.387,7.78,0.169
				c1.695,0.361,3.492,0.289,5.245,0.321c2.141,0.039,4.286-0.063,6.426-0.012C67.231,258.373,68.568,258.573,70.234,258.728z
				 M263.297,68.764c-1.535-4.729-1.212-9.143-1.04-13.548c0.083-2.143,0.229-4.284,0.269-6.427
				c0.044-2.404-0.018-4.809-0.001-7.214c0.013-1.882,0.142-3.765,0.097-5.645c-0.04-1.65-0.394-1.913-2.06-1.756
				c-1.424,0.134-2.841,0.485-4.263,0.495c-4.418,0.031-8.848,0.536-13.254-0.216c-0.318-0.054-0.653-0.041-0.977-0.014
				c-2.683,0.217-5.333,0.092-7.957-0.584c-0.682-0.176-1.425-0.153-2.141-0.153c-3.898-0.001-7.796,0.055-11.693,0.006
				c-1.006-0.012-1.491,0.371-1.558,1.288c-0.07,0.969-0.098,1.95-0.037,2.918c0.172,2.726,0.467,5.445,0.587,8.172
				c0.153,3.448,0.11,6.905,0.3,10.349c0.077,1.388,0.598,2.746,0.829,4.132c0.478,2.865,0.896,5.74,1.348,8.666
				c1.121,0,2.154,0.027,3.186-0.004c4.101-0.125,8.201-0.347,12.303-0.378c2.927-0.022,5.856,0.296,8.784,0.294
				c2.993-0.002,5.989-0.164,8.978-0.348c1.087-0.066,2.256-0.197,3.208-0.665c0.948-0.465,1.688-0.423,2.582-0.063
				C261.454,68.339,262.181,68.463,263.297,68.764z M377.574,146.711c2.268-0.514,4.518-1.142,6.809-1.514
				c2.665-0.433,4.458-2.19,6.446-3.734c2.591-2.014,3.418-5.304,5.652-7.571c0.366-0.371,0.466-1.076,0.544-1.646
				c0.52-3.767,0.432-7.531-0.056-11.3c-0.247-1.913-0.338-3.846-0.526-5.767c-0.051-0.514-0.166-1.028-0.308-1.525
				c-0.246-0.855-0.585-1.684-0.8-2.545c-0.78-3.123-1.937-5.958-5.216-7.29c-0.17-0.069-0.282-0.273-0.448-0.365
				c-2.976-1.635-6.276-1.993-9.562-2.383c-0.286-0.034-0.612,0.315-0.905,0.293c-1.709-0.122-3.415-0.292-5.118-0.477
				c-0.151-0.017-0.365-0.231-0.402-0.39c-0.374-1.568-1.63-1.187-2.683-1.231c-2.526-0.105-4.522,1.253-6.159,2.829
				c-1.586,1.526-3.136,3.234-3.764,5.538c-0.564,2.068-1.011,4.282-2.111,6.06c-1.302,2.103-1.634,4.356-2.043,6.625
				c-0.271,1.505-0.394,3.11-0.183,4.614c0.384,2.732,1.646,5.144,3.325,7.35c0.661,0.868,0.975,2.017,1.69,2.822
				c1.95,2.196,3.995,4.312,6.074,6.386c0.771,0.768,1.759,1.314,2.621,1.996C372.525,145.127,374.516,146.95,377.574,146.711z
				 M254.047,377.581c3.402,0.208,7.416-1.141,11.531-1.754c0.615-0.091,1.207-0.475,1.762-0.803c3.8-2.245,5.457-6.154,7.373-9.8
				c0.603-1.146,0.484-2.668,0.702-4.018c0.278-1.725,0.608-3.444,0.829-5.177c0.128-1.005,0.147-2.034,0.108-3.048
				c-0.111-2.917-2.233-4.8-3.944-6.704c-2.265-2.521-4.951-4.688-7.607-6.819c-0.904-0.726-2.237-1.073-3.425-1.251
				c-1.583-0.236-3.263,0.016-4.444-1.429c-0.076-0.093-0.219-0.167-0.339-0.181c-2.953-0.329-5.922-0.245-8.598,1.077
				c-2.52,1.246-4.9,2.767-7.215,4.433c-1.907,1.372-3.407,3.133-4.543,4.891c-1.521,2.354-3.389,4.793-3.463,7.893
				c-0.01,0.434-0.239,0.878-0.428,1.289c-0.814,1.768-0.752,3.646-0.698,5.515c0.099,3.462,2.454,5.707,4.482,8.109
				c0.451,0.534,1.023,0.978,1.588,1.398c0.968,0.72,1.922,1.486,2.978,2.055c1.137,0.612,2.44,0.917,3.574,1.536
				C247.074,376.323,249.906,377.692,254.047,377.581z M116.188,246.546c0.042,0,0.084,0,0.126-0.001
				c-0.046,0.846-0.137,1.692-0.129,2.537c0.024,2.728-0.094,5.497,1.44,7.938c0.314,0.5,0.793,1.037,1.318,1.24
				c2.943,1.136,5.876,2.335,8.9,3.212c5.542,1.606,11.204,1.34,16.857,0.628c2.512-0.316,4.871-1.087,7.247-2.011
				c4.841-1.882,6.214-4.532,6.104-8.408c-0.139-4.857,0.165-9.727-0.971-14.584c-0.698-2.987-2.178-5.475-3.496-8.083
				c-0.539-1.066-1.767-1.842-2.799-2.588c-1.866-1.351-3.741-2.731-5.771-3.798c-1.078-0.567-2.502-0.746-3.745-0.67
				c-2.064,0.126-4.132,0.493-6.151,0.961c-1.413,0.328-2.839,0.833-4.095,1.547c-1.841,1.048-3.432,2.56-5.317,3.499
				c-2.271,1.131-3.57,3.143-5.065,4.944c-1.331,1.603-2.224,3.563-3.386,5.315c-0.865,1.303-1.236,2.653-1.093,4.225
				C116.285,243.805,116.188,245.18,116.188,246.546z"/>
			<path fill="#838357" d="M252.693,132.057c-0.311,0.974-0.406,1.94-1.55,2.098c-1.016,0.14-1.929-0.046-2.505-1.053
				c-0.441-0.772-0.942-1.512-1.397-2.236c-0.229,0.049-0.377,0.041-0.472,0.109c-0.541,0.389-1.112,1.172-1.592,1.118
				c-1.029-0.117-0.695-1.196-0.815-1.921c-0.096-0.576-0.23-1.151-0.269-1.732c-0.079-1.188-0.296-2.358,0.968-3.254
				c0.555-0.393,0.77-1.301,1.072-2.004c0.409-0.95,1.163-1.357,2.12-1.458c1.164-0.124,1.807,0.456,1.97,1.62
				c0.224,1.594-0.412,3-1.177,4.245c-1.091,1.777,0.04,3.436,1.734,3.892C251.389,131.642,251.989,131.843,252.693,132.057z
				 M248.448,125.165c-0.187-0.062-0.374-0.124-0.561-0.186c-0.172,0.555-0.345,1.111-0.517,1.666
				c0.131,0.045,0.263,0.09,0.394,0.136C247.992,126.242,248.22,125.703,248.448,125.165z"/>
			<path fill="#838357" d="M235.921,129.536c-1.925-1.384-2.379-2.425-1.915-4.183c0.452-1.709,1.896-2.975,3.52-3.125
				c0.97-0.089,1.668,0.175,1.864,1.235c0.195,1.059-0.404,1.34-1.307,1.488c-0.559,0.091-1.12,0.356-1.6,0.667
				c-0.266,0.172-0.528,0.62-0.493,0.907c0.035,0.278,0.406,0.614,0.708,0.743c1.19,0.51,2.407,0.961,3.624,1.409
				c0.926,0.34,1.27,0.998,1.279,1.955c0.01,0.992-0.434,1.627-1.348,1.888c-0.99,0.283-2.001,0.652-3.01,0.676
				c-2.025,0.046-2.634-1.114-1.643-2.851C235.726,130.126,235.79,129.872,235.921,129.536z M237.397,129.657
				c-0.063,0.248-0.125,0.495-0.188,0.743c0.402,0.075,0.803,0.159,1.208,0.204c0.022,0.002,0.146-0.445,0.11-0.464
				C238.164,129.952,237.777,129.812,237.397,129.657z"/>
			<path fill="#838357" d="M237.679,108.69c-1.366,0.546-1.861,1.761-1.945,3.356c-1.762-0.303-3.392-0.564-5.014-0.871
				c-0.953-0.18-1.53-0.693-1.275-1.772c0.058-0.245,0.259-0.57,0.167-0.719c-0.443-0.718-0.707-1.545-0.131-2.148
				c0.425-0.446,1.242-0.519,1.92-0.771c0.632-2.01,0.632-2.01,2.852-1.85C235.337,105.427,236.422,106.938,237.679,108.69z"/>
			<path fill="#838357" d="M257.815,124.078c0.324-0.029,0.682-0.16,0.964-0.064c0.433,0.146,0.813,0.447,1.215,0.683
				c-0.264,0.408-0.505,0.834-0.805,1.214c-0.103,0.13-0.362,0.126-0.534,0.214c-0.646,0.33-1.714,0.56-1.839,1.035
				c-0.269,1.02-0.158,2.187,0.036,3.25c0.056,0.307,0.907,0.593,1.423,0.659c0.624,0.081,1.292-0.179,1.917-0.103
				c0.364,0.044,0.683,0.458,1.021,0.706c-0.274,0.294-0.493,0.718-0.831,0.862c-1.907,0.812-3.916,0.95-5.929,0.563
				c-0.471-0.091-1.002-0.55-1.217-0.983c-0.101-0.202,0.498-0.738,0.76-1.137c0.29-0.441,0.754-0.882,0.791-1.351
				c0.07-0.888,0.017-1.83-0.213-2.688c-0.462-1.727-0.085-2.459,1.684-2.755C256.769,124.099,257.296,124.11,257.815,124.078z"/>
			<path fill="#838357" d="M242.073,106.868c-0.904,0-1.616,0.22-2.002-0.041c-1.212-0.82-1-1.887,0.38-2.441
				c1.846-0.742,3.08,0.085,3.119,2.098c0.012,0.644,0.001,1.288,0.001,1.965c0.742,0.222,1.482,0.319,2.076,0.666
				c0.354,0.207,0.641,0.804,0.646,1.229c0.003,0.247-0.583,0.65-0.955,0.723c-1.143,0.223-2.321,0.481-3.464,0.405
				c-0.656-0.044-1.354-0.631-1.849-1.149c-0.138-0.145,0.33-0.944,0.604-1.391C241.041,108.26,241.529,107.637,242.073,106.868z"/>
			<path fill="#838357" d="M325.507,361.346c-0.445-0.508-0.892-1.02-1.402-1.603c-1.896,0.051-1.875,0.066-1.956,2.046
				c-0.059,1.427-0.225,2.85-0.339,4.227c-1.829,0.78-2.356,0.478-2.838-1.242c-0.576-2.055,0.309-3.835,0.907-5.762
				c-0.563-0.571-1.168-1.133-1.711-1.751c-0.469-0.533-0.456-1.027,0.253-1.413c1.3-0.708,2.645-0.339,3.532,0.887
				c0.508,0.702,1.178,1.288,1.785,1.936c0.334-0.262,0.555-0.345,0.607-0.49c0.518-1.43,0.758-1.604,2.184-1.449
				c0.515,0.056,1.028,0.217,1.539,0.201c0.43-0.014,0.854-0.214,1.35-0.351c0.4,0.642,0.767,1.23,1.266,2.029
				c0.381-0.473,0.629-0.935,1.008-1.223c1.283-0.974,2.209-0.761,2.919,0.719c0.484,1.01,1.197,1.471,2.295,1.458
				c0.563-0.006,1.126,0.083,1.759,0.134c-1.327,2.468-2.029,2.739-4.478,1.849c-0.18-0.065-0.417-0.266-0.519-0.209
				c-1.726,0.954-2.722-0.119-4.035-1.079C328.34,359.316,326.969,360.433,325.507,361.346z"/>
			<path fill="#838357" d="M343.385,362.224c-1.312-0.358-1.199-1.445-1.055-2.33c0.229-1.403,0.68-2.77,1.029-4.154
				c0.17-0.676,0.322-1.357,0.492-2.08c-1.402-0.702-2.673-0.085-3.927-0.086c-0.775,0-1.583,0.188-2.312,0.015
				c-0.418-0.1-0.979-0.74-0.992-1.152c-0.021-0.677,0.316-1.427,1.232-1.443c1.881-0.034,3.803-0.275,5.634,0.023
				c1.83,0.298,3.292,1.931,2.198,4.05c-1.138,2.203-1.306,4.563-1.957,6.836C343.713,361.955,343.636,361.991,343.385,362.224z"/>
			<path fill="#838357" d="M310.829,352.108c1.774,1.382,2.561,2.927,2.725,4.849c0.157,1.83-1.033,2.898-3.156,2.643
				c-0.924-0.111-1.52-0.984-1.351-1.824c0.189-0.938,0.849-1.013,1.641-0.89c0.364,0.056,0.743,0.01,1.471,0.01
				c-0.274-0.656-0.373-1.133-0.64-1.479c-0.505-0.653-1.153-1.196-1.658-1.85c-0.764-0.987-0.749-2.653-0.042-3.461
				c0.672-0.769,2.416-0.989,3.476-0.439c0.781,0.405,0.793,1.132-0.019,1.645c-0.313,0.198-0.718,0.248-1.082,0.364
				C311.836,351.79,311.476,351.903,310.829,352.108z"/>
			<path fill="#838357" d="M316.248,359.309c-1.275-1.948-1.086-3.078,0.427-4.203C317.9,356.583,316.521,357.661,316.248,359.309z"
				/>
			<path fill="#838357" d="M317.696,353.187c-0.793,0.766-1.426,0.919-1.999,0.25c-0.148-0.173-0.051-0.838,0.146-0.978
				C316.658,351.881,317.08,352.531,317.696,353.187z"/>
			<path fill="#838357" d="M364.023,196.79c-0.756,1.307,0.443,2.975-0.896,4.065c-1.342-0.723-1.758-1.849-1.763-3.238
				c-0.006-1.674-0.19-3.353-0.105-5.02c0.086-1.691,2.931-3.478,4.365-2.635c0.834,0.491,1.497,1.624,1.795,2.603
				c0.694,2.276-0.202,3.529-2.528,3.995C364.582,196.622,364.281,196.721,364.023,196.79z M364.799,194.863
				c0.479-0.621,0.974-0.982,1.039-1.408c0.124-0.824-0.674-0.922-1.171-0.797c-0.435,0.109-0.766,0.629-1.144,0.967
				C363.878,193.969,364.234,194.314,364.799,194.863z"/>
			<path fill="#838357" d="M368.71,192.394c1.315-2.03,1.412-2.047,3.263-0.648c2.51,1.897,3.135,5.39,1.426,7.974
				c-0.828,1.252-1.413,1.398-2.737,0.675c-0.514-0.281-1.022-0.573-1.534-0.856c-1.33-0.736-1.448-1.196-0.619-2.413
				C369.644,195.46,369.698,194.515,368.71,192.394z M371.613,193.489c-0.236,0.021-0.472,0.043-0.708,0.065
				c0,1.053-0.013,2.105,0.004,3.157c0.011,0.688,0.15,1.348,1.048,1.271c0.852-0.073,1.105-0.758,0.911-1.411
				C372.553,195.513,372.041,194.514,371.613,193.489z"/>
			<path fill="#838357" d="M391.175,196.031c0.124-1.159,0.204-2.325,0.383-3.476c0.217-1.39,1.881-2.133,2.965-1.252
				c1.483,1.204,2.562,2.727,2.774,4.71c0.154,1.437-0.249,1.995-1.69,2.343c-0.503,0.122-1.021,0.207-1.536,0.254
				C391.914,198.812,391.209,198.176,391.175,196.031z M394.753,196.221c0.126-0.161,0.252-0.321,0.377-0.481
				c-0.29-0.723-0.58-1.445-0.87-2.167c-0.175,0.005-0.35,0.011-0.525,0.017c-0.131,0.699-0.384,1.41-0.324,2.092
				C393.432,195.899,394.282,196.043,394.753,196.221z"/>
			<path fill="#838357" d="M376.67,199.456c-0.152-0.495-0.408-0.983-0.437-1.484c-0.093-1.589-0.249-3.198-0.081-4.768
				c0.086-0.809,0.919-1.51,1.215-2.332c0.41-1.134,1.231-1.397,2.272-1.458c0.982-0.057,1.322,0.48,1.58,1.345
				c0.254,0.852,0.762,1.627,1.094,2.306c-0.645,2.27-1.576,4.091-4.337,3.584c-0.254,1.025-0.462,1.868-0.671,2.711
				C377.093,199.393,376.882,199.424,376.67,199.456z M380.167,192.118c-1.552,0.45-2.257,1.157-1.871,1.933
				c0.152,0.306,0.824,0.554,1.214,0.5C380.408,194.426,380.576,193.729,380.167,192.118z"/>
			<path fill="#838357" d="M388.168,199.198c-1.307-0.044-1.52-0.917-1.538-1.755c-0.041-1.879,0.02-3.763,0.09-5.643
				c0.01-0.254,0.304-0.691,0.489-0.704c0.333-0.023,0.753,0.134,1.005,0.362c0.203,0.184,0.292,0.582,0.293,0.886
				c0.013,2.079-0.004,4.158-0.033,6.236C388.473,198.751,388.312,198.92,388.168,199.198z"/>
			<path fill="#838357" d="M38.904,234.299c-0.677,0.289-1.082,0.593-1.492,0.602c-0.451,0.009-1.092-0.123-1.311-0.433
				c-0.222-0.315-0.205-1.026,0.01-1.383c0.842-1.401,3.944-1.816,5.087-0.667c0.361,0.362,0.681,1.137,0.539,1.563
				c-0.532,1.593,0.217,2.904,0.68,4.289c0.724,2.168-0.102,3.797-2.317,4.235c-1,0.198-2.082,0.181-3.098,0.045
				c-1.112-0.148-1.513-0.856-1.393-1.972c0.087-0.813,1.026-1.938,1.718-1.876c0.336,0.03,0.769,0.408,0.925,0.738
				c0.416,0.875,1.037,0.752,1.592,0.345c0.699-0.513,0.437-1.053-0.106-1.62C38.272,236.631,38.27,236.509,38.904,234.299z"/>
			<path fill="#838357" d="M48.707,236.427c1.339,1.141,2.662,1.917,3.488,3.053c1.258,1.73,0.737,2.686-1.33,3.096
				c-4.551,0.904-5.278-0.98-4.742-4.908c0.172-1.263,0.699-2.488,1.16-3.694c0.144-0.376,0.551-0.754,0.929-0.91
				c0.424-0.174,1.224-0.294,1.374-0.086c0.28,0.387,0.394,1.091,0.239,1.55C49.588,235.233,49.066,235.844,48.707,236.427z"/>
			<path fill="#838357" d="M53.493,236.213c-0.081-1.533,0.408-2.528,1.372-2.846c1.752-0.578,3.042-0.28,3.949,0.927
				c0.31,0.412,0.64,0.818,0.878,1.271c0.655,1.246,0.732,2.475-0.245,3.624c-0.872,1.025-2.404,1.455-3.712,1.025
				c-1.369-0.45-2.178-1.351-2.239-2.834C53.48,236.992,53.493,236.603,53.493,236.213z M55.606,235.674
				c-0.082,1.056-0.569,2.149,0.432,2.6c0.601,0.27,1.585-0.074,2.288-0.386c0.286-0.127,0.541-1.039,0.369-1.357
				C58.058,235.347,56.894,235.567,55.606,235.674z"/>
			<path fill="#838357" d="M233.202,51.586c-0.952,0.302-1.551,0.49-2.149,0.683c-2.076,0.667-3.346-0.208-3.402-2.348
				c-0.094-3.617,2.326-5.354,5.763-4.137c1.951,0.691,2.063,0.915,2.137,3.043c0.09,2.589,0.263,5.176,0.403,7.765
				c0.014,0.258,0.145,0.551,0.061,0.765c-0.133,0.338-0.345,0.781-0.629,0.883c-0.259,0.093-0.838-0.113-0.966-0.353
				c-0.476-0.888-0.988-1.813-1.173-2.784C233.049,54.059,233.202,52.948,233.202,51.586z M229.899,49.766
				c1.561,0.354,1.802,0.224,3.253-1.771C231.473,47.269,230.469,47.815,229.899,49.766z"/>
			<path fill="#838357" d="M247.271,56.653c-0.612,0.311-1.236,0.893-1.744,0.805c-0.425-0.073-0.78-0.897-1.044-1.448
				c-0.219-0.456-0.151-1.063-0.403-1.487c-0.397-0.667-0.589-1.469-1.659-1.657c-2.466-0.434-2.463-0.524-2.675-2.97
				c-0.05-0.581-0.113-1.17-0.074-1.749c0.058-0.846,0.099-0.849,1.569-1.562c0.304,1.282,0.592,2.496,0.873,3.68
				c1.777,0.17,1.728,0.159,2.087-1.382c0.183-0.785,0.578-1.52,0.955-2.476c1.417,1.392,1.243,2.779,0.871,4.17
				C245.43,52.811,245.733,54.6,247.271,56.653z"/>
			<path fill="#838357" d="M249.501,50.962c0-0.083,0.008-0.276-0.001-0.47c-0.052-1.077-0.411-2.334,1.104-2.707
				c2.168-0.533,3.604,0.118,4.321,1.829c0.05,0.118,0.069,0.25,0.126,0.364c1.951,3.845-0.394,4.75-3.396,5.013
				c-1.653,0.145-2.359-0.707-2.317-2.37C249.352,52.104,249.438,51.589,249.501,50.962z M254.146,51.895
				c-0.652-0.812-1.096-1.923-2.289-1.251c-0.299,0.169-0.507,1.153-0.303,1.447C252.341,53.221,253.198,52.505,254.146,51.895z"/>
			<path fill="#838357" d="M380.594,128.343c-0.146,0.33-0.302,0.656-0.434,0.991c-0.228,0.582-0.251,1.389-1.168,1.286
				c-1.05-0.118-0.819-1.004-0.879-1.674c-0.108-1.216-0.18-2.436-0.284-3.896c-1.074,0.118-1.936,0.212-3.11,0.34
				c0.106,1.656,0.18,3.186,0.314,4.709c0.059,0.661,0.292,1.413-0.644,1.531c-0.865,0.109-1.044-0.647-1.131-1.3
				c-0.094-0.708-0.111-1.429-0.12-2.145c-0.028-2.092-0.02-2.092-2.103-2.67c-0.169,1.406-0.341,2.816-0.508,4.228
				c-0.119,1.002-0.611,1.878-1.611,1.927c-0.903,0.043-2.098-0.105-2.693-0.667c-1.63-1.539-2.09-3.671-2.025-5.863
				c0.011-0.368,0.596-1.018,0.897-1.008c0.454,0.016,1.164,0.416,1.281,0.801c0.261,0.854,0.163,1.809,0.316,2.705
				c0.273,1.604,0.809,1.834,2.619,1.051c-0.149-1.124-0.307-2.31-0.488-3.675c0.173-0.102,0.577-0.541,0.93-0.503
				c0.849,0.09,1.315-0.302,1.775-0.894c0.183-0.235,0.511-0.535,0.754-0.519c2.194,0.146,4.343-1.048,6.564-0.2
				c0.331,0.126,0.832,0.141,1.121-0.025c1.027-0.59,1.561-0.305,1.841,0.792c0.308,1.206,1.044,2.027,2.203,2.205
				c-0.211,1.62-0.374,3.125-0.633,4.613c-0.048,0.276-0.534,0.717-0.728,0.674c-0.371-0.082-0.84-0.39-0.978-0.724
				c-0.272-0.662-0.346-1.405-0.501-2.114C380.98,128.326,380.787,128.334,380.594,128.343z"/>
			<path fill="#838357" d="M380.78,114.804c-2.437-0.374-1.773-2.254-2.484-3.342c-0.719,0-1.433,0.065-2.127-0.022
				c-0.492-0.062-1.042-0.225-1.415-0.528c-0.58-0.472-0.5-4.327,0.014-4.915c0.465-0.532,1.309-0.331,1.495,0.44
				c0.178,0.74,0.174,1.523,0.253,2.315c1.114,0.301,1.717,0.008,1.787-1.128c0.024-0.39-0.021-0.83,0.148-1.151
				c0.181-0.342,0.581-0.791,0.879-0.787c0.304,0.004,0.723,0.452,0.868,0.799c0.166,0.396,0.067,0.898,0.117,1.352
				c0.177,1.602,0.4,3.2,0.538,4.806C380.913,113.341,380.81,114.053,380.78,114.804z"/>
			<path fill="#838357" d="M390.142,127.978c-2.38-0.398-2.377-0.397-2.924,1.602c-0.068,0.247-0.171,0.491-0.301,0.712
				c-0.053,0.09-0.219,0.114-0.334,0.167c-1.554-1.364-1.515-4.436,0.233-7.164c0.303,0.502,0.494,0.948,0.799,1.293
				c0.302,0.341,0.73,0.822,1.083,0.806c0.487-0.022,1.059-0.358,1.404-0.734c0.398-0.433,0.589-1.057,0.871-1.598
				c0.136,0.014,0.271,0.028,0.407,0.042c0.159,0.656,0.426,1.308,0.454,1.97c0.067,1.617,0.022,3.238,0.027,4.857
				c0,0.194,0.103,0.424,0.03,0.577c-0.22,0.469-0.502,0.908-0.76,1.359c-0.33-0.418-0.855-0.799-0.945-1.265
				C390.03,129.799,390.142,128.942,390.142,127.978z"/>
			<path fill="#838357" d="M368.185,106.02c0.517-0.289,1.062-0.593,1.589-0.889c0.752,1.227,1.496,2.341,2.133,3.514
				c0.444,0.816-0.407,1.978-1.476,1.991c-1.488,0.018-2.979-0.039-4.464-0.123c-1.053-0.059-1.676-0.822-1.438-1.812
				c0.177-0.74,0.45-1.492,0.847-2.136C366.283,105.096,366.595,105.066,368.185,106.02z"/>
			<path fill="#838357" d="M258.984,365.957c-2.648,2.074-4.824,1.841-5.983-0.479c-0.548,0.344-1.071,0.705-1.624,1.014
				c-1.452,0.813-2.732,0.737-3.716-0.375c-0.963-1.088-1.595-1.061-0.42-2.966c0.406-0.658,0.601-1.46,1.063-2.065
				c0.313-0.41,0.909-0.766,1.412-0.817c0.376-0.039,0.918,0.372,1.16,0.734c0.109,0.164-0.28,0.734-0.53,1.05
				c-0.433,0.546-1.016,0.989-1.37,1.576c-0.164,0.271,0.063,0.779,0.101,1.088c1.531-0.319,2.874-0.6,4.388-0.916
				c0.243-0.983-0.187-2.61,1.917-3.15c0.08,0.739,0.261,1.391,0.2,2.019c-0.234,2.377-0.261,2.36,1.995,2.73
				C257.98,365.466,258.357,365.703,258.984,365.957z"/>
			<path fill="#838357" d="M266.088,366.82c-1.142-0.277-2.22-0.898-2.895-0.601c-0.668,0.294-0.93,1.513-1.452,2.478
				c-0.432-0.171-1.015-0.23-1.315-0.552c-1.021-1.094-0.497-4.182,0.697-5.195c0.45-0.382,0.727-1.021,0.959-1.594
				c0.443-1.092,1.178-1.634,2.181-1.512c1.065,0.129,1.078,0.948,1.2,1.729c0.237,1.526,0.512,3.047,0.743,4.574
				C266.241,366.378,266.124,366.631,266.088,366.82z"/>
			<path fill="#838357" d="M238.992,362.743c0.13-0.905,0.211-1.749,0.381-2.574c0.169-0.821,0.781-1.25,1.571-1.123
				c0.874,0.14,0.759,0.846,0.685,1.539c-0.13,1.219-0.22,2.449-0.204,3.672c0.005,0.355,0.367,0.911,0.674,1
				c0.319,0.094,0.848-0.178,1.151-0.443c1.535-1.348,1.492-1.353,0.567-3.387c-0.19-0.418-0.214-1.005-0.078-1.44
				c0.072-0.23,0.8-0.517,0.975-0.398c0.377,0.255,0.704,0.719,0.841,1.163c0.209,0.675,0.252,1.404,0.346,2.113
				c0.327,2.478-0.436,3.642-2.823,4.327c-1.966,0.565-3.456-0.355-3.82-2.385C239.133,364.107,239.074,363.394,238.992,362.743z"/>
			<path fill="#838357" d="M253.206,345.78c-1.78,2.486-3.715,3.258-5.813,2.643c-1.511-0.443-1.555-1.778-1.819-2.911
				c-0.218-0.932,0.222-1.608,1.316-1.755c0.234-0.032,0.456-0.53,0.592-0.852c0.58-1.371,0.771-1.4,1.913-0.213
				c0.393-0.25,0.788-0.502,1.368-0.871c0.176,0.554,0.468,0.981,0.397,1.336C250.855,344.684,251.287,345.656,253.206,345.78z"/>
			<path fill="#838357" d="M257.577,343.562c0.233,2.006,0.447,3.846,0.656,5.646c-1.605,0.519-2.038,0.409-2.166-0.672
				c-0.151-1.279-0.167-2.583-0.122-3.873C255.977,343.786,256.07,343.789,257.577,343.562z"/>
			<path fill="#838357" d="M124.736,251.272c1.826,0.122,1.826,0.122,4.769-2.576c-0.337-0.523-0.792-1.052-1.033-1.665
				c-0.184-0.468-0.094-1.043-0.126-1.571c0.598,0.008,1.198-0.012,1.791,0.042c0.145,0.013,0.256,0.281,0.401,0.411
				c1.204,1.083,1.154,0.999,2.589,0.123c0.796-0.486,1.777-0.761,2.71-0.904c0.836-0.129,1.331,0.404,1.224,1.462
				c-1.126,0.523-2.54,0.639-3.368,1.899c-0.499,0.759-0.924,1.431-0.569,2.324c0.383,0.961,1.244,0.772,2.015,0.75
				c1.342-0.039,2.65-0.232,3.979,0.429c0.632,0.314,1.58-0.006,2.385-0.039c0.053-0.187,0.106-0.374,0.16-0.56
				c-0.76-0.521-1.474-1.134-2.291-1.542c-1.664-0.832-1.933-2.495-0.521-3.716c1.668-1.443,2.711-1.603,4.645-0.473
				c-0.741,0.385-1.331,0.64-1.863,0.985c-0.404,0.262-0.734,0.637-1.097,0.962c0.331,0.355,0.638,0.74,1.004,1.054
				c0.185,0.158,0.482,0.181,0.724,0.277c1.873,0.743,2.382,2.888,0.865,4.218c-1.285,1.127-2.793,1.819-4.652,1.278
				c-1.354-0.395-2.77-0.592-4.165-0.836c-1.11-0.194-2.162-0.453-2.803-1.505c-0.521-0.853-1.282-0.836-2.049-0.471
				c-0.939,0.448-1.831,0.994-2.753,1.478c-1.244,0.652-2.585,0.875-3.63-0.179c-0.994-1.002-1.744-2.168-1.111-3.834
				c0.45-1.184,0.441-2.538,0.673-3.809c0.081-0.446,0.199-0.915,0.429-1.294c0.177-0.29,0.57-0.644,0.844-0.625
				c0.271,0.018,0.689,0.439,0.733,0.73c0.083,0.553-0.032,1.142-0.104,1.711C124.306,247.646,123.71,249.499,124.736,251.272z"/>
			<path fill="#838357" d="M146.494,248.955c0.168-0.8,0.133-1.731,0.546-2.374c1.063-1.652,3.721-1.312,4.702,0.507
				c0.062,0.113,0.142,0.237,0.145,0.358c0.048,2.146,0.144,4.295,0.077,6.438c-0.014,0.437-0.57,1.092-1.011,1.238
				c-1.47,0.486-2.988,0.863-4.515,1.128c-0.843,0.147-1.8-0.071-2.071-1.046c-0.243-0.875,0.408-1.36,1.125-1.812
				c0.405-0.256,0.748-0.823,0.845-1.306c0.204-1.013,0.228-2.062,0.325-3.096C146.606,248.979,146.55,248.967,146.494,248.955z
				 M148.566,250.042c1.513,0.167,2.16-0.137,2.049-0.996c-0.049-0.38-0.541-0.983-0.857-1
				C148.404,247.976,148.533,248.99,148.566,250.042z M150.081,253.195c0.001-0.166,0.001-0.331,0.002-0.497
				c-0.634-0.208-1.263-0.813-2.201,0.497C148.809,253.195,149.445,253.195,150.081,253.195z"/>
			<path fill="#838357" d="M144.414,234.917c0.635,1.328,1.159,2.425,1.665,3.486c-1.202,2.099-2.136,2.53-4.491,2.087
				c-1.123-0.211-1.949-0.704-1.779-2.344c0.682,0,1.354,0,2.025,0c0.634,0,1.268,0,2.414,0c-0.527-0.713-0.714-1.184-1.057-1.371
				c-0.369-0.202-0.885-0.129-1.335-0.189c-1.838-0.245-2.273-0.819-2.042-2.814c-0.489-0.297-1.021-0.619-1.829-1.109
				c1.068-1.136,2.137-2.083,3.543-2.383c0.991-0.212,2.125-0.612,2.999,0.595c0.9,1.243,0.866,2.378,0.102,3.604
				C144.529,234.638,144.462,234.818,144.414,234.917z M141.156,232.842c0.043,0.192,0.085,0.384,0.128,0.576
				c0.705-0.187,1.409-0.374,2.114-0.562c-0.045-0.166-0.09-0.331-0.135-0.497C142.562,232.521,141.859,232.681,141.156,232.842z"/>
			<path fill="#838357" d="M130.392,229.973c0.292-0.46,0.402-0.821,0.644-0.973c0.356-0.224,0.868-0.487,1.196-0.378
				c0.266,0.089,0.505,0.701,0.502,1.079c-0.011,1.285-0.285,2.539,0.392,3.804c0.421,0.786-0.169,1.32-1.011,1.508
				c-1.072,0.239-2.134,0.522-3.205,0.767c-1.537,0.351-2.376-0.258-2.528-1.829c-0.044-0.453,0.063-0.952-0.091-1.357
				c-0.574-1.505,0.327-2.232,1.343-3.066C128.675,228.672,129.421,229.226,130.392,229.973z"/>
		</g>
		<g>
			<path fill="#838357" d="M242.973,404.795c-1.572-0.55-1.844-1.705-1.75-3.102c0.061-0.904,0.012-1.815,0.012-3.058
				c-1.117,0.153-2.18,0.224-3.194,0.484c-0.288,0.074-0.522,0.675-0.63,1.076c-0.386,1.436-0.656,2.905-1.086,4.326
				c-0.118,0.39-0.626,0.892-0.982,0.915c-0.375,0.024-0.997-0.382-1.134-0.744c-0.268-0.707-0.477-1.547-0.351-2.271
				c0.362-2.084,0.892-4.141,1.377-6.203c0.4-1.7,0.826-3.393,1.251-5.086c0.269-1.069,0.474-2.167,0.879-3.184
				c0.17-0.428,0.736-0.837,1.204-0.976c0.666-0.196,1.278,0.082,1.532,0.843c0.959,2.876,2.158,5.699,2.812,8.643
				c0.528,2.375,0.423,4.895,0.54,7.354C243.467,404.137,243.136,404.478,242.973,404.795z M237.992,396.595
				c1.092-0.116,1.876-0.199,3.038-0.323c-0.572-2.199-1.076-4.134-1.614-6.2c-1.62,1.188-1.668,1.693-0.741,3.295
				C238.442,394.469,238.249,395.381,237.992,396.595z"/>
			<path fill="#838357" d="M301.359,387.253c0.87,1.241,1.957,2.146,2.411,3.671c0.969,3.248,1.89,5.279,3.98,6.478
				c0.215-0.598,0.55-1.146,0.592-1.715c0.159-2.136,0.374-4.283-0.272-6.394c-0.149-0.489-0.247-1.024-0.216-1.529
				c0.042-0.675,0.279-1.304,1.153-1.284c0.737,0.017,1.05,0.482,1.061,1.142c0.042,2.663,0.167,5.333,0.029,7.987
				c-0.063,1.233,0.044,2.585-0.924,3.703c-0.462,0.534-0.643,1.345-1.536,1.226c-0.989-0.132-1.868-0.468-2.291-1.537
				c-0.574-1.454-1.209-2.884-1.843-4.313c-0.358-0.81-0.379-0.801-1.776-1.302c-0.233,1.96-0.469,3.865-0.681,5.773
				c-0.108,0.969-0.135,1.948-0.269,2.913c-0.105,0.754-0.645,1.241-1.367,1.044c-0.464-0.126-0.982-0.616-1.164-1.068
				c-0.201-0.501-0.145-1.166-0.03-1.724c0.402-1.957,0.953-3.885,1.303-5.85c0.273-1.534,0.359-3.104,0.479-4.662
				C300.075,388.805,300.298,387.917,301.359,387.253z"/>
			<path fill="#838357" d="M186.78,403.188c0.134,0.801,0.363,1.87,0.468,2.951c0.038,0.386-0.221,0.801-0.345,1.204
				c-0.45-0.177-1.029-0.24-1.316-0.562c-0.313-0.353-0.46-0.938-0.499-1.435c-0.107-1.375,0.298-2.83-0.997-3.955
				c-0.221-0.191-0.124-1.239,0.142-1.415c1.194-0.789,0.909-1.935,0.912-3.003c0.003-1.172-0.141-2.345-0.121-3.516
				c0.012-0.719-0.126-1.64,1.092-1.785c0.85,1.193,0.88,2.522,0.835,3.887c-0.043,1.295-0.009,2.593-0.009,3.863
				c0.142,0.105,0.241,0.24,0.351,0.251c2.542,0.251,5.574-2.109,5.803-4.577c0.096-1.033-0.021-2.084,0.03-3.124
				c0.032-0.642,0.063-1.35,0.353-1.89c0.182-0.338,0.853-0.581,1.286-0.555c0.271,0.016,0.598,0.578,0.733,0.955
				c0.124,0.347,0.029,0.773,0.023,1.165c-0.041,3.054-0.192,6.111-0.084,9.16c0.065,1.854,0.529,3.695,0.813,5.531
				c-1.769,0.728-2.549,0.429-2.711-1.316c-0.173-1.87-0.039-3.768-0.039-6.082C191.217,400.384,189.217,401.648,186.78,403.188z"/>
			<path fill="#838357" d="M276.497,398.161c-0.748,0-1.321-0.047-1.883,0.008c-2.702,0.261-3.186,0.809-3.183,3.542
				c0,0.326,0.129,0.691,0.019,0.968c-0.17,0.427-0.494,0.793-0.752,1.185c-0.324-0.354-0.781-0.658-0.939-1.076
				c-0.201-0.53-0.241-1.157-0.208-1.733c0.15-2.597,0.373-5.189,0.52-7.786c0.047-0.832,0.339-1.346,0.989-1.95
				c0.961-0.893,1.609-2.129,2.361-3.239c0.828-1.221,1.935-1.279,2.696-0.054c0.338,0.543,0.638,1.172,0.733,1.796
				c0.59,3.857,1.118,7.724,1.664,11.588c0.104,0.74,0.191,1.586-0.834,1.62c-1.033,0.034-1.196-0.792-1.185-1.648
				C276.507,400.366,276.497,399.351,276.497,398.161z M276.117,395.965c0.345-2.294-0.383-3.966-1.623-5.712
				c-1.066,1.866-2.34,3.427-1.748,5.712C273.899,395.965,274.963,395.965,276.117,395.965z"/>
			<path fill="#838357" d="M251.474,396.988c0,1.89-0.018,3.705,0.01,5.519c0.009,0.608,0.083,1.388-0.66,1.349
				c-0.446-0.023-1.177-0.73-1.22-1.184c-0.146-1.546,0.015-3.118-0.052-4.675c-0.083-1.925-0.278-3.846-0.436-5.911
				c0.315-0.43,0.91-1.013,1.228-1.721c0.741-1.654,1.525-2.352,2.829-2.24c1.118,0.095,2.133,1.225,2.624,2.602
				c0.612,1.72-0.104,2.995-1.144,4.217c-0.199,0.234-0.447,0.427-0.763,0.724c1.69,1.458,3.302,2.822,4.879,4.226
				c0.41,0.365,0.821,0.804,1.036,1.295c0.26,0.596,0.368,1.327-0.448,1.668c-0.783,0.328-1.417,0.027-1.831-0.673
				c-0.356-0.604-0.506-1.405-0.995-1.841c-1.28-1.14-3.022-1.744-3.887-3.392C252.584,396.837,252.067,396.962,251.474,396.988z
				 M251.383,393.471c1.371,0.584,2.256-0.125,2.705-0.979c0.4-0.762,0.094-1.716-1-2.271
				C252.5,391.341,251.959,392.371,251.383,393.471z"/>
			<path fill="#838357" d="M365.844,393.408c1.045,0.846,1.854,1.715,2.845,2.241c0.985,0.522,2.153,0.7,3.241,1.027
				c-0.117,1.67-0.778,2.415-2.211,1.984c-1.249-0.375-2.384-1.191-3.498-1.922c-0.631-0.415-1.116-1.05-1.802-1.716
				c-0.492,0.627-0.838,1.162-1.28,1.6c-0.286,0.283-0.763,0.641-1.062,0.571c-0.349-0.082-0.753-0.552-0.853-0.928
				c-0.145-0.545-0.083-1.161-0.03-1.74c0.211-2.329,0.429-4.658,0.69-6.981c0.222-1.975,1.705-2.946,3.582-2.446
				c1.47,0.392,2.789,1.059,2.941,2.704c0.153,1.652,0.308,3.436-1.525,4.496C366.566,392.479,366.355,392.85,365.844,393.408z
				 M364.169,391.281c0.142,0.086,0.284,0.172,0.425,0.258c0.445-0.327,0.993-0.577,1.311-1c0.47-0.624,0.806-1.384,0.229-2.149
				c-0.254-0.337-0.7-0.903-0.886-0.842c-0.417,0.138-0.968,0.564-1.03,0.944C364.068,389.399,364.169,390.349,364.169,391.281z"/>
			<path fill="#838357" d="M335.796,395.662c2.306,0.503,3.622-0.012,4.791-1.758c0.073-0.108,0.132-0.239,0.233-0.312
				c0.487-0.352,1.101-1.052,1.453-0.94c0.485,0.152,0.808,0.903,1.137,1.437c0.123,0.2,0.063,0.509,0.097,0.767
				c0.079,0.599,0.196,1.33,0.96,1.166c0.455-0.098,1.087-0.661,1.146-1.083c0.231-1.659,0.276-3.345,0.369-5.022
				c0.032-0.572-0.119-1.183,0.038-1.709c0.096-0.322,0.595-0.654,0.959-0.719c0.234-0.042,0.653,0.336,0.819,0.625
				c1.246,2.169,0.554,6.706-1.24,8.521c-0.313,0.317-0.536,0.723-0.81,1.08c-0.763,0.991-2.392,1.048-3.223,0.117
				c-1.329-1.488-1.745-1.475-3.308-0.162c-0.464,0.389-1.103,0.713-1.695,0.782c-2.531,0.294-3.282-0.554-3.481-3.138
				c-0.149-1.929,0.803-3.52,1.19-5.276c0.084-0.381,0.527-0.839,0.902-0.961c0.494-0.16,1.155-0.168,1.6,0.05
				c0.205,0.101,0.167,0.92,0.059,1.37c-0.102,0.418-0.372,0.857-0.693,1.148C335.907,392.721,335.841,394.111,335.796,395.662z"/>
			<path fill="#838357" d="M169.732,395.203c-0.053,0.575-0.118,0.892-0.104,1.205c0.147,3.509,0.314,7.017,0.456,10.525
				c0.016,0.383,0,0.818-0.17,1.14c-0.116,0.22-0.583,0.45-0.791,0.378c-0.313-0.106-0.73-0.451-0.763-0.733
				c-0.151-1.281-0.24-2.576-0.245-3.867c-0.007-2.144,0.076-4.287,0.104-6.431c0.015-1.17-0.682-1.663-1.75-1.581
				c-1.101,0.084-2.188,0.329-3.287,0.455c-1.034,0.118-2.074,0.209-3.113,0.24c-0.755,0.022-1.481-0.173-1.571-1.099
				c-0.073-0.763,0.716-1.397,1.674-1.475c2.985-0.242,5.974-0.452,8.952-0.769c1.488-0.158,2.945-0.597,4.432-0.768
				c0.952-0.11,1.953-0.06,2.891,0.125c0.316,0.063,0.643,0.746,0.692,1.177c0.022,0.188-0.724,0.725-0.976,0.645
				C173.906,393.66,172.041,395.287,169.732,395.203z"/>
			<path fill="#838357" d="M207.992,402.352c-2.122,0.791-4.238,1.549-6.574,1.237c-0.914-0.122-1.338-0.801-1.435-1.63
				c-0.313-2.706-0.587-5.416-0.855-8.126c-0.095-0.962,0.385-1.572,1.236-2.009c1.62-0.831,3.223-1.574,5.14-1.355
				c0.999,0.114,1.742,0.392,2.202,1.693c-0.532,0.151-1.012,0.33-1.507,0.42c-1.147,0.211-2.339,0.262-3.439,0.611
				c-0.704,0.224-1.277,0.862-2.2,1.524c1.529,0.878,2.696,0.903,3.931,0.729c1.189-0.168,2.391-0.243,3.933-0.392
				c-1.343,1.731-2.715,2.369-4.448,2.269c-0.52-0.03-1.059-0.058-1.563,0.042c-1.271,0.254-1.674,1.145-1.096,2.291
				c1.094,2.17,1.889,2.426,4.132,1.334C207.111,400.181,207.324,400.282,207.992,402.352z"/>
			<path fill="#838357" d="M354.515,387.063c2.745,0.067,5.349,4.106,4.398,6.689c-0.546,1.484-1.328,2.605-2.866,3.184
				c-0.633,0.238-1.108,0.907-1.743,1.13c-1.031,0.362-2.221,0.692-3.058-0.349c-0.958-1.192-2.039-2.395-1.269-4.177
				c0.561-1.296,1.03-2.634,1.489-3.971C351.987,388.053,353.192,387.03,354.515,387.063z M355.734,390.211
				c-0.298,0.344-0.57,0.809-0.972,1.083c-0.417,0.284-0.984,0.336-1.443,0.572c-1.072,0.549-1.786,2.466-1.298,3.375
				c0.398,0.742,1.773,0.795,2.998,0.013c0.522-0.334,0.858-0.955,1.377-1.299c0.727-0.482,1.519-0.865,1.197-1.939
				C357.324,391.123,356.911,390.333,355.734,390.211z"/>
			<path fill="#838357" d="M381.802,388.875c-0.627,0.358-1.135,0.676-1.668,0.945c-1.077,0.543-1.333,1.323-0.419,2.094
				c1.313,1.107,2.771,2.058,4.238,2.959c0.623,0.383,1.432,0.557,1.195,1.477c-0.229,0.893-1.04,0.89-1.76,0.753
				c-1.958-0.373-3.74-1.01-4.713-3.001c-0.333-0.682-0.939-1.23-1.42-1.84c-0.174,0.045-0.349,0.09-0.523,0.135
				c-0.187,0.778-0.394,1.551-0.554,2.334c-0.104,0.507-0.056,1.06-0.235,1.531c-0.115,0.303-0.594,0.742-0.778,0.686
				c-0.364-0.11-0.686-0.486-0.928-0.823c-0.126-0.176-0.066-0.503-0.054-0.76c0.114-2.458,0.229-4.917,0.361-7.375
				c0.017-0.319,0.059-0.674,0.215-0.938c0.185-0.312,0.532-0.781,0.761-0.755c0.375,0.043,0.819,0.359,1.034,0.69
				c0.232,0.356,0.234,0.863,0.401,1.583c0.648-0.138,1.435-0.086,1.905-0.447C380.079,387.187,380.83,387.703,381.802,388.875z"/>
			<path fill="#838357" d="M263.687,402.893c-1.403-0.464-2.179-0.894-2.068-2.151c0.244-2.759-0.266-5.406-1.208-7.998
				c-0.261-0.716-0.37-1.511-0.409-2.277c-0.083-1.637,0.66-2.608,2.271-3.146c2.174-0.726,3.15-0.433,4.299,0.922
				c1.124,1.325,1.259,2.786,1.069,4.388c-0.107,0.907-0.602,1.363-1.461,1.575c-2.695,0.667-2.9,0.935-2.775,3.683
				c0.039,0.842,0.218,1.677,0.272,2.519C263.725,401.145,263.687,401.887,263.687,402.893z M261.757,390.186
				c1.04,2.81,1.599,3.02,4.309,1.735C266.009,389.479,264.486,388.832,261.757,390.186z"/>
			<path fill="#838357" d="M320.239,392.882c-1.334,0.728-2.607,1.451-4.308,1.269c-1.583-0.169-2.397,0.774-2.232,2.155
				c0.19,1.596,0.869,1.937,2.365,1.22c0.466-0.224,0.963-0.497,1.456-0.52c0.431-0.02,0.877,0.282,1.316,0.442
				c-0.205,0.486-0.293,1.271-0.634,1.404c-1.259,0.49-2.586,0.96-3.918,1.07c-1.704,0.14-2.491-0.821-2.417-2.533
				c0.113-2.589,0.226-5.179,0.405-7.764c0.026-0.385,0.323-0.931,0.646-1.086c1.451-0.699,2.911-1.388,4.622-1.238
				c0.9,0.079,1.413,0.527,1.323,1.308c-0.039,0.333-0.767,0.692-1.244,0.844c-0.607,0.193-1.288,0.14-1.917,0.28
				c-1.055,0.237-1.249,1.095-1.15,1.976c0.11,0.985,0.978,0.925,1.671,0.91c0.712-0.016,1.418-0.209,2.131-0.265
				c0.601-0.047,1.209-0.01,1.814-0.01C320.191,392.523,320.215,392.702,320.239,392.882z"/>
			<path fill="#838357" d="M324.773,392.193c-0.844-0.378-1.564-0.575-2.116-0.993c-0.356-0.271-0.689-0.91-0.614-1.304
				c0.062-0.324,0.729-0.732,1.146-0.753c1.354-0.069,2.742,0.198,4.069,0.008c1.768-0.254,3.495-0.807,5.234-1.251
				c0.702-0.18,1.39-0.413,2.564-0.766c-0.306,0.879-0.325,1.421-0.58,1.575c-0.767,0.463-1.618,0.794-2.45,1.143
				c-1.064,0.446-2.132,0.887-3.217,1.28c-1.798,0.651-2.012,2.128-2.143,3.753c-0.129,1.604-0.41,3.199-0.7,4.784
				c-0.053,0.289-0.456,0.69-0.728,0.716c-0.294,0.028-0.839-0.27-0.9-0.518c-0.183-0.739-0.295-1.533-0.23-2.288
				C324.258,395.835,324.529,394.103,324.773,392.193z"/>
		</g>
	</g>
</g>
<g id="Grid">
</g>
</svg>
