<?xml version="1.0" encoding="utf-8"?>
<!-- Generator: Adobe Illustrator 16.0.0, SVG Export Plug-In . SVG Version: 6.00 Build 0)  -->
<!DOCTYPE svg PUBLIC "-//W3C//DTD SVG 1.1//EN" "http://www.w3.org/Graphics/SVG/1.1/DTD/svg11.dtd">
<svg version="1.1" xmlns="http://www.w3.org/2000/svg" xmlns:xlink="http://www.w3.org/1999/xlink" x="0px" y="0px"
	 width="513.052px" height="436.386px" viewBox="0 0 513.052 436.386" enable-background="new 0 0 513.052 436.386"
	 xml:space="preserve">
<symbol  id="THe_orchardist" viewBox="-272.655 -238.569 546.341 477.475">
	<g>
		
			<text transform="matrix(1 0 0 -1 -272.6133 203.7515)" fill="#9D3040" font-family="'Archer-Book'" font-size="42" letter-spacing="-1">The Orchardist</text>
	</g>
	<polygon fill="none" points="-269.604,186.421 270.396,186.421 270.396,-238.569 -269.604,-238.569 	"/>
	<text transform="matrix(1 0 0 -1 -269.6055 165.8311)"><tspan x="0" y="0" fill="#626464" font-family="'Archer-Light'" font-size="29">A Novel, subtitle goes here</tspan><tspan x="0" y="38" fill="#626464" font-family="'ProximaNovaT-Thin'" font-size="21">I told him about the nucleotides, the genetic test, the prognosis. </tspan><tspan x="0" y="66" fill="#626464" font-family="'ProximaNovaT-Thin'" font-size="21">I told him that atrophying of basal ganglia starts years before </tspan><tspan x="0" y="94" fill="#626464" font-family="'ProximaNovaT-Thin'" font-size="21">symptoms present, and that right now – in this car, in this </tspan><tspan x="0" y="122" fill="#626464" font-family="'ProximaNovaT-Thin'" font-size="21">moment – parts of my brain were dying, parts that I didn’t know I </tspan><tspan x="0" y="150" fill="#626464" font-family="'ProximaNovaT-Thin'" font-size="21">needed, but parts that I would never, never be able to get back. I </tspan><tspan x="0" y="178" fill="#626464" font-family="'ProximaNovaT-Thin'" font-size="21">told him that there wasn’t an emotion or an impulse or a </tspan><tspan x="0" y="206" fill="#626464" font-family="'ProximaNovaT-Thin'" font-size="21">stumble that I could completely trust; I told him that one day – if </tspan><tspan x="0" y="234" fill="#626464" font-family="'ProximaNovaT-Thin'" font-size="21">I let it – everything I did and said and thought would be nothing </tspan><tspan x="0" y="262" fill="#626464" font-family="'ProximaNovaT-Thin'" font-size="21">more than the entropic implosion of a condemned building or a </tspan><tspan x="0" y="290" fill="#626464" font-family="'ProximaNovaT-Thin'" font-size="21">dying star.</tspan></text>
</symbol>
<symbol  id="archer_4_" viewBox="-105.487 -40.31 178.313 62.174">
	<g>
		<g>
			<g>
				
					<text transform="matrix(1 0 0 -1 -96.7559 -35.9854)" fill="#8D8C8C" font-family="'Scout-Regular'" font-size="17.2976" letter-spacing="2">FOUNDATION</text>
			</g>
			<g>
				<path fill="#CA571F" d="M-46.555,5.065c0.692-1.106,0.767-2.303,0.767-2.766v-12.497h-3.741v-3.139h11.235v3.139h-3.853v12.59
					c0,3.081-1.932,8.294-9.172,8.294c-2.704,0-5.012-1.3-7.056-3.976l-0.189-0.249v15.403h-7.438v-3.139h3.797v-28.924h-3.797
					v-3.139h11.18v3.139h-3.742V-0.15c0,5.257,4.675,7.438,7.178,7.438C-49.103,7.289-47.478,6.541-46.555,5.065z"/>
				<path fill="#CA571F" d="M-16.663-10.627c0.99-1.923,3.352-3.072,6.315-3.072c2.537,0,5.288,1.198,6.491,2.355
					c0.82,0.819,1.265,1.739,1.265,2.659c0,1.595-1.155,2.798-2.687,2.798c-1.297,0-2.239-0.966-2.239-2.296
					c0-0.554,0.171-1.086,0.481-1.5l0.073-0.097L-7.07-9.838c-0.821-0.457-2.173-0.74-2.956-0.74c-1.509,0-2.785,0.566-3.252,1.441
					c-0.319,0.572-0.404,1.925-0.404,2.56V7.099h7.315v3.14h-7.315v7.209l-3.585-1.424v-5.786h-4.412v-3.14h4.412V-7.38
					C-17.267-8.753-17.069-9.816-16.663-10.627z"/>
				<polygon fill="#CA571F" points="-67.616,7.099 -67.616,10.239 -78.404,10.239 -78.404,7.099 -74.364,7.099 -78.771,-7.265 
					-85.447,7.559 -87.376,7.559 -94.109,-7.264 -98.514,7.099 -94.698,7.099 -94.698,10.239 -105.487,10.239 -105.487,7.099 
					-102.016,7.099 -95.465,-13.336 -93.543,-13.336 -86.551,2.002 -79.615,-13.336 -77.462,-13.336 -70.969,7.099 				"/>
				<polygon fill="#CA571F" points="-34.342,10.239 -34.342,7.099 -30.321,7.099 -30.321,-10.198 -34.342,-10.198 -34.342,-13.336 
					-22.659,-13.336 -22.659,-10.198 -26.679,-10.198 -26.679,10.239 				"/>
				<path fill="#CA571F" d="M-28.975,21.84c-1.609,0-3.021-1.412-3.021-3.021c0-1.607,1.358-2.965,2.966-2.965
					c1.579,0,2.964,1.386,2.964,2.965C-26.066,20.428-27.425,21.84-28.975,21.84z"/>
				<polygon fill="#CA571F" points="0.333,10.239 0.333,7.099 4.354,7.099 4.354,-10.198 0.333,-10.198 0.333,-13.336 
					12.016,-13.336 12.016,-10.198 7.995,-10.198 7.995,10.239 				"/>
				<path fill="#CA571F" d="M5.699,21.84c-1.609,0-3.021-1.412-3.021-3.021c0-1.607,1.358-2.965,2.965-2.965
					c1.58,0,2.966,1.386,2.966,2.965C8.609,20.428,7.25,21.84,5.699,21.84z"/>
				<path fill="#CA571F" d="M35.566,5.393C36.465,4.187,36.6,2.73,36.6,1.969v-12.167h-3.742v-3.139h11.18v3.139h-3.797v12.59
					c0,6.547-5.773,8.294-9.184,8.294c-3.229,0-5.164-1.572-7.074-3.931l-0.188-0.232v3.716h-7.438v-3.14h3.797v-17.297h-3.797
					v-3.139h11.18v3.139h-3.741V-0.15c0,5.099,4.292,7.474,7.192,7.474C33.069,7.324,34.609,6.674,35.566,5.393z"/>
				<path fill="#CA571F" d="M67.437,10.239L67.437,10.239l-2.107,0V6.882l-0.028,0.05c-1.23,2.175-4.385,3.754-7.502,3.754
					c-3.301,0-6.31-1.304-8.473-3.672c-2.066-2.262-3.204-5.263-3.204-8.45c0-7.018,5.778-11.871,11.175-11.871
					c3.017,0,5.658,1.421,7.849,3.952l0.186,0.214v-4.195c0-2.973-1.61-8.085-7.477-8.085c-2.95,0-4.378,0.738-4.746,0.964
					l-0.099,0.061l0.07,0.093c0.31,0.413,0.481,0.946,0.481,1.5c0,1.33-0.941,2.295-2.239,2.295c-1.532,0-2.687-1.203-2.687-2.798
					c0-0.958,0.415-1.878,1.198-2.661c1.274-1.226,4.052-2.538,8.021-2.538c7.952,0,11.118,5.745,11.118,11.898V7.099h3.854v3.14
					H67.437z M57.951-9.938l-0.042,0c-4.772,0.031-8.33,3.846-8.33,8.557c0,4.991,3.571,8.643,8.554,8.643
					c2.988,0,7.197-2.834,7.197-8.186C65.331-6.173,61.579-9.938,57.951-9.938z"/>
			</g>
		</g>
	</g>
</symbol>
<symbol  id="footer_1_1_" viewBox="-800 -58 1600 153">
	<polygon fill="#B6B6B6" points="800,-58 -800,-58 -800,95 800,95 	"/>
	<text transform="matrix(1 0 0 -1 46.9155 -24)" fill="#FFFFFF" font-family="'ProximaNova-Regular'" font-size="11">PRIVACY &amp; TERMS </text>
	<text transform="matrix(1 0 0 -1 193.6841 -23.9995)" fill="#FFFFFF" font-family="'ProximaNova-Regular'" font-size="11">© MRS GILES WHITING FOUNDATION</text>
	<text transform="matrix(1 0 0 -1 429.1099 -23.9995)" fill="#FFFFFF" font-family="'ProximaNova-Regular'" font-size="11">Site by PASTPRESENTFUTURE</text>
	<text transform="matrix(1 0 0 -1 -585 58)"><tspan x="0" y="0" fill="#FFFFFF" font-family="'ProximaNova-Bold'" font-size="13" letter-spacing="1">FOUNDATION</tspan><tspan x="0" y="19" fill="#FFFFFF" font-family="'ProximaNova-Regular'" font-size="11">HISTORY</tspan><tspan x="0" y="34" fill="#FFFFFF" font-family="'ProximaNova-Regular'" font-size="11">PEOPLE</tspan><tspan x="0" y="49" fill="#FFFFFF" font-family="'ProximaNova-Regular'" font-size="11">CONTACT</tspan></text>
	<text transform="matrix(1 0 0 -1 -456 58)"><tspan x="0" y="0" fill="#FFFFFF" font-family="'ProximaNova-Bold'" font-size="13" letter-spacing="1">LITERATURE</tspan><tspan x="0" y="19" fill="#FFFFFF" font-family="'ProximaNova-Regular'" font-size="11">Whiting Awards</tspan><tspan x="0" y="34" fill="#FFFFFF" font-family="'ProximaNova-Regular'" font-size="11">ABOUT</tspan><tspan x="0" y="49" fill="#FFFFFF" font-family="'ProximaNova-Regular'" font-size="11">WINNERS</tspan><tspan x="0" y="64" fill="#FFFFFF" font-family="'ProximaNova-Regular'" font-size="11">NEWS &amp; NEW WORK</tspan><tspan x="0" y="79" fill="#FFFFFF" font-family="'ProximaNova-Regular'" font-size="11">KEYNOTES</tspan><tspan x="0" y="94" fill="#FFFFFF" font-family="'ProximaNova-Regular'" font-size="11">OTHER PROGRAMS</tspan></text>
	<g>
		<path fill="#FFFFFF" d="M513,62v-2h-2v-3h2v-8h3v8h2.63c0,0,0.219,1,0.324,3H516v2.031c0,0.287,0.692-0.031,1.067-0.031H519v3
			h-2.613c-3.643,0-3.254-2.673-3.254-3.095"/>
		<path fill="#FFFFFF" d="M552.296,63.413c-0.691-0.306-1.436-0.514-2.213-0.606c0.795,0.477,1.405,1.231,1.693,2.132
			c-0.744-0.441-1.568-0.762-2.447-0.935c-0.853,0.91-2.147,1.405-3.541,1.15c-1.74-0.318-3.065-1.883-3.123-3.651
			c-0.011-0.349,0.021-0.69,0.1-1.015c-3.204,0.161-6.042,1.695-7.944,4.027c-0.332-0.57-0.522-1.232-0.522-1.938
			c0-1.337,0.547-2.516,1.581-3.207c-0.633,0.021-0.878,0.193-1.878,0.482c0-0.016,0-0.032,0-0.049c0-1.867,1.46-3.424,3.223-3.778
			c-0.322-0.088-0.596-0.135-0.947-0.135c-0.25,0-0.457,0.023-0.691,0.068c0.49-1.53,1.93-2.645,3.615-2.676
			c-1.317-1.034-2.971-1.649-4.776-1.649c-0.312,0-0.614,0.018-0.914,0.054c1.704-1.093,3.73-1.731,5.906-1.731
			c7.088,0,10.966,5.872,10.966,10.965c0,0.167-0.003,0.333-0.012,0.498C551.125,61.963,551.778,62.641,552.296,63.413"/>
		<path fill="#FFFFFF" d="M585,50h-19v14h19V50z"/>
		<path fill="none" stroke="#B6B6B6" stroke-width="1.1761" stroke-miterlimit="10" d="M585.631,64.139L575.5,55.607l-10.131,8.531"
			/>
		<path fill="none" stroke="#B6B6B6" stroke-width="1.1761" stroke-miterlimit="10" d="M577.153,57l8.478-7.393 M565.369,49.607
			L573.847,57"/>
	</g>
	<text transform="matrix(1 0 0 -1 -294 58)"><tspan x="0" y="0" fill="#FFFFFF" font-family="'ProximaNova-Bold'" font-size="13" letter-spacing="1">HUMANITIES</tspan><tspan x="0" y="19" fill="#FFFFFF" font-family="'ProximaNova-Regular'" font-size="11">About</tspan><tspan x="0" y="34" fill="#FFFFFF" font-family="'ProximaNova-Regular'" font-size="11">past programs</tspan></text>
	<polygon fill="#FFFFFF" points="576.833,67.667 576.833,67.667 576.833,68.167 576.833,68.167 	"/>
	<polygon display="none" fill="none" points="-800,95 800,95 800,-58 -800,-58 	"/>
</symbol>
<symbol  id="news_text" viewBox="-182.57 -60.908 365.142 121.026">
	<polygon fill="none" points="-182.57,57.579 182.572,57.579 182.572,-60.908 -182.57,-60.908 	"/>
	<text transform="matrix(1 0 0 -1 -182.5703 43.3779)"><tspan x="0" y="0" fill="#626464" font-family="'ProximaNova-Semibold'" font-size="20">Margaret Talbot on Roald Dahl in The New </tspan><tspan x="0" y="24" fill="#626464" font-family="'ProximaNova-Semibold'" font-size="20">Yorker </tspan><tspan x="58.52" y="24" fill="#626464" font-family="'Archer-BookItalic'" font-size="15.0727">August 29, 2014</tspan><tspan x="0" y="52" fill="#626464" font-family="'ProximaNovaT-Thin'" font-size="15">In “Meant for Kids,” Margaret Talbot (Whiting 1999) writes </tspan><tspan x="0" y="72" fill="#626464" font-family="'ProximaNovaT-Thin'" font-size="15">on the meaning of Penguin’s rebranding of Roald Dahl’s </tspan><tspan x="0" y="92" fill="#626464" font-family="'ProximaNovaT-Thin'" font-size="15">Charlie and the Chocolate Factory in The New...  </tspan><tspan x="299.916" y="92" fill="#8D8C8C" font-family="'ProximaNova-Bold'" font-size="12" letter-spacing="1">More &gt;</tspan></text>
</symbol>
<g id="Art">
	<g id="orchardist_unit_1_5_col">
	</g>
	<g id="footer_1">
	</g>
	<g id="archer">
	</g>
	<g id="New_Symbol">
		<g id="archer_1_">
		</g>
	</g>
	<g id="archer_2_">
	</g>
	<g id="New_Symbol_1">
	</g>
	<g id="New_Symbol_4">
	</g>
	<g>
		<g>
			<path fill="#2D587B" d="M403.766,398.581c1.484,0,2.588,0,3.694,0c-0.048,2.408-0.393,2.854-2.498,3.216
				c-2.739,0.472-5.465,1.021-8.274,0.438c-0.673-0.14-1.424,0.075-2.138,0.148c-1.548,0.16-1.548,0.166-3.261-1.342
				c2.509-1.627,5.708-0.585,8.152-2.411c-0.394-1.914-0.818-3.91-1.212-5.913c-0.476-2.416-1.078-4.82-1.344-7.26
				c-0.29-2.652-1.386-4.917-2.903-6.976c-2.962-4.021-6.052-7.949-9.184-12.039c-2.444,1.194-3.606,3.418-4.25,5.882
				c-0.599,2.293-0.846,4.676-1.287,7.012c-0.412,2.179-0.771,4.33-1.608,6.455c-1.025,2.603-0.771,5.493-0.484,8.295
				c0.111,1.084,0.1,2.193,0.02,3.281c-0.105,1.418-0.356,2.825-0.501,4.242c-0.114,1.111-0.479,2.359,1.308,2.504
				c-0.581,1.652-1.793,1.98-2.929,2.049c-4.054,0.246-8.116,0.396-12.176,0.489c-2.142,0.049-3.126-1.153-2.788-3.319
				c2.352,0.207,4.722,0.368,7.08,0.641c1.436,0.167,2.54-0.092,3.072-1.589c0.106-0.298,0.236-0.618,0.446-0.843
				c2.803-2.99,3.261-6.647,3.133-10.522c-0.036-1.08,0.298-2.172,0.469-3.258c0.024-0.157,0.156-0.331,0.117-0.459
				c-1.042-3.356,1.856-6.156,1.338-9.445c-0.056-0.355,0.125-0.805,0.323-1.135c1.878-3.138,1.797-6.583,1.429-10.007
				c-0.11-1.03-0.855-2.061-1.502-2.951c-2.798-3.854-5.715-7.621-8.494-11.487c-1.789-2.488-3.395-5.107-5.123-7.64
				c-0.581-0.851-1.375-1.561-1.91-2.435c-0.991-1.62-1.833-3.331-2.789-4.974c-3.362-5.782-7.172-11.254-11.345-16.484
				c-1.278-1.602-2.238-3.458-3.509-5.067c-1.569-1.987-3.327-3.824-4.975-5.751c-1.291-1.511-2.923-2.885-3.718-4.632
				c-1.344-2.955-3.843-4.326-6.381-5.8c-1.495-0.868-2.981-1.752-4.469-2.632c-0.136-0.08-0.247-0.202-0.384-0.277
				c-2.919-1.596-5.801-3.264-8.772-4.756c-2.209-1.11-4.441-2.124-6.155-3.991c-0.367-0.399-0.856-0.724-1.347-0.965
				c-2.415-1.184-4.579-2.795-7.172-3.72c-1.715-0.611-3.181-1.899-4.948-2.659c-4.559-1.958-9.092-1.734-13.801-0.817
				c-4.68,0.911-20.306,3.111-22.612,3.323c-4.428,0.408-8.819,1.267-13.203,2.064c-3.829,0.697-7.68,1.377-11.424,2.414
				c-3.984,1.104-7.88,2.547-11.754,4.004c-0.892,0.336-1.7,1.221-2.261,2.047c-1.45,2.133-2.783,4.35-4.073,6.584
				c-0.585,1.014-0.961,2.147-1.426,3.229c-1.343,3.128-2.683,6.258-4.025,9.387c-0.408,0.952-0.816,1.904-1.229,2.854
				c-1.29,2.975-2.476,6.001-3.913,8.904c-0.901,1.819-2.225,3.424-3.279,5.174c-1.761,2.923-3.341,5.96-5.214,8.807
				c-1.741,2.646-3.765,5.104-5.665,7.646c-0.235,0.314-0.567,0.594-0.691,0.947c-0.974,2.777-2.428,5.294-4.061,7.724
				c-0.747,1.111-1.405,2.282-2.147,3.396c-0.891,1.335-1.828,2.64-3.054,4.402c0.859-0.426,1.359-0.623,1.806-0.905
				c1.936-1.221,3.825-2.52,5.788-3.694c4.197-2.511,7.978-5.683,12.883-7.039c3.675-1.015,7.329-1.397,11.075-1.335
				c2.847,0.046,5.485,0.907,7.953,2.313c0.552,0.315,1.203,0.486,1.697,0.868c0.723,0.561,1.511,1.148,1.98,1.905
				c1.853,2.988,2.644,6.193,1.737,9.719c-0.89,3.462-1.356,7.067-3.049,10.262c-0.999,1.884-2.342,3.588-3.562,5.352
				c-0.76,1.099-1.566,2.137-2.233,3.328c-0.77,1.374-2.18,2.588-3.593,3.354c-2.056,1.114-4.189,2.051-6.576,2.629
				c-2.436,0.589-4.889,1.328-7.356,1.916c-0.675,0.16-1.396,0.265-2.082,0.212c-2.444-0.189-4.805-0.283-7.252,0.495
				c-1.498,0.476-3.309,0.009-4.975-0.101c-1.408-0.093-2.813-0.425-4.213-0.395c-2.687,0.06-4.98-1.125-7.213-2.276
				c-1.917-0.99-2.963-3.004-3.198-5.078c-0.216-1.904-0.385-3.919,1.136-5.676c0.844-0.974,1.079-2.456,1.683-3.661
				c0.523-1.043,1.161-2.031,1.785-3.021c0.917-1.454,1.866-2.888,3.059-4.725c-2.034,0.243-2.958-0.589-3.596-1.989
				c0.289-1.425,1.52-1.98,2.732-2.205c1.018-0.188,1.521-0.658,1.967-1.475c1.067-1.952,2.188-3.875,3.292-5.806
				c0.158-0.276,0.296-0.592,0.527-0.794c2.803-2.457,3.956-5.887,5.461-9.121c1.817-3.905,4.076-7.55,6.515-11.104
				c1.797-2.618,3.247-5.428,4.512-8.389c1.452-3.399,3.543-6.539,5.487-9.712c2.94-4.797,4.832-9.992,6.475-15.345
				c0.685-2.231,1.04-4.662,2.554-6.627c0.517-0.671,0.768-1.548,1.22-2.5c-0.75-0.46-1.403-0.871-2.067-1.266
				c-0.944-0.562-1.969-0.935-2.561-2.044c-0.289-0.541-1.119-0.857-1.766-1.132c-1.364-0.578-2.739-1.169-4.163-1.559
				c-2.133-0.582-4.292-1.246-6.477-1.419c-3.103-0.246-5.565-1.745-8.086-3.278c-1.632-0.993-3.311-1.912-5.006-2.792
				c-0.468-0.242-1.086-0.359-1.608-0.3c-1.493,0.171-2.689-0.5-3.626-1.439c-1.16-1.163-2.148-2.52-3.073-3.887
				c-0.468-0.692-0.837-1.469-1.75-1.382c-1.342,0.127-1.465-0.908-1.924-1.675c1.144-1.6,2.597-2.128,4.419-1.492
				c0.355,0.124,0.907,0.322,0.961,0.573c0.384,1.773,1.931,2.461,3.135,3.423c1.723,1.377,3.551,2.624,5.347,3.908
				c0.317,0.227,0.694,0.525,1.044,0.525c2.615,0.001,4.407,1.662,6.271,3.109c0.859,0.667,1.61,0.729,2.641,0.547
				c1.144-0.202,2.399-0.219,3.527,0.036c2.169,0.489,4.346,1.072,6.401,1.908c1.744,0.709,3.368,1.755,4.954,2.792
				c1.059,0.692,1.958,1.63,3.282,2.76c0.091-0.939,0.213-1.576,0.205-2.212c-0.043-3.173-0.09-6.347-0.197-9.519
				c-0.06-1.745-0.078-3.516-0.401-5.222c-0.8-4.235-1.312-8.487-1.499-12.796c-0.113-2.613-0.749-5.208-0.802-7.819
				c-0.104-5.078-0.242-10.15,0.272-15.243c0.418-4.136,1.526-8.259,0.672-12.501c-0.311-1.543-0.17-3.181-0.192-4.776
				c-0.006-0.464-0.002-1.021,0.234-1.381c1.386-2.115,0.563-3.965-0.461-5.909c-1.098-2.083-2.533-4.213-0.487-6.752
				c-1.842-0.453-3.482-1.044-5.167-1.231c-3.321-0.369-6.688-0.641-9.975,0.204c-2.62,0.673-5.209,0.547-7.85,0.288
				c-2.05-0.202-4.124-0.155-6.184-0.263c-1.224-0.063-1.874,0.6-2.433,1.58c-1.375,2.408-2.697,4.86-4.264,7.141
				c-1.432,2.085-3.115,4.005-4.769,5.928c-1.021,1.187-2.112,1.43-2.906,0.874c-0.907-0.635-1.261-2.187-0.614-3.423
				c0.471-0.899,1.014-1.876,1.79-2.476c2.219-1.715,2.503-4.341,3.432-6.666c0.394-0.986-0.015-1.632-0.925-2.152
				c-1.352-0.772-2.559-1.839-3.97-2.458c-1.354-0.594-2.876-0.835-4.345-1.127c-2.65-0.525-5.307-1.027-7.977-1.435
				c-2.396-0.366-4.076-1.705-5.39-3.618c-0.65-0.945-0.344-1.764,0.724-2.192c1.17-0.468,2.497-0.76,3.445-1.517
				c1.512-1.207,3.138-0.918,4.778-0.881c0.35,0.008,0.693,0.28,1.042,0.427c1.435,0.606,2.831,1.542,4.318,1.723
				c1.404,0.17,2.771,0.475,3.725,1.292c1.151,0.987,2.523,1.248,3.777,1.856c1.265,0.613,2.304,0.215,3.442-0.717
				c2.143-1.756,3.179-3.809,3.625-6.584c0.395-2.45,1.689-4.783,2.761-7.086c0.8-1.718,1.147-3.274-0.028-4.955
				c-0.442-0.633-0.66-1.427-0.955-2.157c-1.358-3.373-0.079-5.503,3.446-5.752c0.708-0.05,1.416-0.108,2.252-0.172
				c1.024,1.496,1.432,3.217,1.481,5.077c0.058,2.206,0.362,4.422,0.213,6.61c-0.073,1.076-0.758,2.23-1.456,3.123
				c-3.69,4.725-3.704,7.05-4.524,14.068c0.777,0.171,1.587,0.503,2.397,0.501c3.902-0.007,7.815-0.314,11.705-0.118
				c4.902,0.247,9.711-1.037,14.886-0.385c-0.135-1.894-0.241-3.539-0.371-5.181c-0.386-4.895-0.735-9.792-1.199-14.68
				c-0.164-1.733-0.618-3.439-0.934-5.159c-0.589-3.209-1.122-6.43-1.789-9.623c-0.241-1.154-0.676-2.308-1.233-3.349
				c-1.373-2.564-2.164-2.813-5.014-2.053c-1.304,0.348-2.655,0.52-3.967,0.843c-2.455,0.604-4.915,1.204-7.336,1.93
				c-0.726,0.218-1.358,0.81-1.981,1.298c-1.409,1.104-2.816,2.077-4.774,1.467c-0.398-0.124-0.947,0.059-1.374,0.229
				c-2.657,1.064-5.292,2.185-7.951,3.247c-1.403,0.561-2.831,1.061-4.261,1.549c-0.979,0.334-2.021,0.507-2.966,0.913
				c-2.981,1.279-6.059,2.011-9.299,2.346c-1.395,0.144-2.701,1.159-4.042,1.79c-1.215,0.572-2.44,1.127-3.631,1.747
				c-2.871,1.493-5.826,2.858-8.559,4.575c-3.153,1.98-6.095,4.293-9.149,6.434c-0.581,0.407-1.221,0.786-1.891,0.998
				c-3.165,1.002-5.971,2.612-8.47,4.785c-2.17,1.887-4.45,3.659-6.501,5.666c-2.613,2.558-5.058,5.289-7.548,7.971
				c-0.802,0.864-1.515,1.81-2.464,2.955c1.323,1.779,2.907,3.908,4.591,6.173c-1.513,0.938-2.463,0.193-3.23-0.5
				c-1.772-1.602-3.442-3.317-5.125-5.016c-1.843-1.862-3.641-3.77-5.489-5.627c-0.376-0.378-0.891-0.62-1.458-1.002
				c0.197-0.423,0.343-1.145,0.585-1.178c0.74-0.104,1.595-0.123,2.26,0.163c0.782,0.335,1.419,1.016,2.105,1.564
				c2.133,1.705,3.786,1.755,5.999,0.086c0.825-0.622,1.567-1.356,2.333-2.054c3.456-3.146,6.89-6.315,10.366-9.438
				c2.445-2.197,5.299-3.765,8.159-5.368c3.925-2.199,8.036-4.146,11.356-7.307c1.551-1.477,1.716-3.538,2.289-5.412
				c0.1-0.325-0.402-1.056-0.8-1.258c-0.604-0.307-1.354-0.383-2.051-0.437c-6.747-0.519-13.526-0.777-20.234-1.608
				c-3.607-0.447-7.269-0.642-10.851-1.616c-2.397-0.652-5.053-0.352-7.494-0.472c-1.612,2.653-1.534,5.782-3.658,8.071
				c-0.968-1.14-0.83-2.19-0.547-3.291c0.792-3.085,1.592-6.168,2.313-9.271c0.25-1.08,0.257-2.215,0.413-3.319
				c0.088-0.629,0.155-1.292,0.418-1.853c0.167-0.355,0.673-0.752,1.03-0.755c0.318-0.003,0.882,0.481,0.919,0.8
				c0.166,1.412,0.27,2.844,0.217,4.263c-0.034,0.934-0.372,1.856-0.61,2.953c0.495,0.116,0.919,0.298,1.345,0.303
				c3.024,0.035,6.065-0.162,9.069,0.088c5.137,0.426,10.248,1.155,15.377,1.689c1.503,0.156,3.038-0.005,4.543,0.138
				c2.361,0.225,4.701,0.689,7.064,0.854c2.123,0.148,4.264,0.031,6.59,0.031c-0.793-2.981-1.374-5.792-2.308-8.48
				c-0.797-2.294-0.958-4.792-2.441-6.906c-0.556-0.793-0.418-2.168-0.371-3.269c0.094-2.201-0.396-4.063-2.239-5.475
				c-1.017-0.779-1.308-1.973-1.274-3.225c0.075-2.738-2.196-4.322-3.243-6.509c-0.106-0.223-0.886-0.269-1.296-0.166
				c-0.605,0.151-1.18,0.472-1.729,0.786c-2.75,1.575-5.558,3.038-7.97,5.169c-1.815,1.604-2.157,1.507-3.877,0.157
				c0.276-1.435,1.571-1.95,2.597-2.588c4.113-2.56,8.278-5.038,12.449-7.503c1.838-1.086,3.694-2.164,5.632-3.047
				c0.697-0.317,1.659-0.051,2.651-0.051c-0.26,2.307-2.44,2.573-3.652,4.288c0.216,0.804,0.512,1.926,0.818,3.044
				c0.655,2.395,1.466,4.672,3.419,6.416c1.864,1.664,2.29,3.834,1.945,6.29c-0.313,2.223-0.288,4.404,1.425,6.291
				c0.638,0.703,0.811,1.885,1.052,2.883c0.933,3.864,1.808,7.743,2.728,11.715c3.736-0.552,7.467-1.14,11.209-1.642
				c2.213-0.296,4.446-0.444,6.668-0.68c0.944-0.1,1.933-0.107,2.816-0.407c4.509-1.531,9.008-3.093,13.468-4.761
				c1.22-0.456,2.287-1.317,3.427-1.987c1.941-1.14,3.964-1.953,6.268-2.119c1.136-0.082,2.237-0.642,3.387-1.459
				c-1.207-0.382-2.414-0.765-4.154-1.315c1.153-0.7,1.787-1.085,2.443-1.483c-3.056-2.386-6.843-3.061-10.476-3.964
				c-3.844-0.956-7.825-1.349-11.685-2.253c-1.82-0.426-3.532-1.263-5.462-1.378c-2.122-0.126-4.23-0.549-6.35-0.597
				c-1.114-0.025-1.904-0.207-2.244-1.288c-0.336-1.068,0.135-1.836,1.056-2.409c2.083-1.298,3.512-1.086,5.479,0.86
				c2.55-0.311,5.002,0.198,7.458,0.864c2.143,0.581,4.307,1.253,6.499,1.435c2.992,0.249,5.677,1.048,8.348,2.441
				c1.628,0.849,3.711,0.8,5.563,1.261c0.887,0.22,1.721,0.667,2.563,1.048c0.499,0.227,0.939,0.691,1.448,0.767
				c3.383,0.5,6.771,0.978,10.17,1.341c1.183,0.127,1.852-0.579,1.731-1.768c-0.417-4.125-0.044-8.294-0.81-12.409
				c-0.265-1.423,0.009-2.952,0.081-4.431c0.15-3.096,0.296-6.162-0.333-9.262c-0.476-2.342-0.396-4.793-0.644-7.187
				c-0.152-1.47-0.42-2.931-0.704-4.383c-0.305-1.559-0.714-3.098-1.033-4.655c-0.212-1.035-0.832-1.437-1.846-1.494
				c-2.548-0.142-5.092-0.336-7.638-0.51c-4.333-0.296-8.434-1.348-12.436-3.126c-3.199-1.421-6.568-2.431-10.051-3.215
				c-3.595-0.81-6.948-0.442-10.413,0.083c-0.922,0.14-1.555,0.49-1.971,1.45c-0.511,1.178-1.325,2.209-3.013,2.061
				c-0.046-0.38-0.221-0.792-0.118-1.116c1.045-3.272,2.786-6.2,4.64-9.06c0.474-0.731,1.068-1.432,2.34-1.079
				c-0.181,0.803-0.362,1.601-0.561,2.482c1.141,0,2.228,0,3.315,0c1.985-0.001,3.971-0.02,5.956-0.001
				c1.778,0.017,3.354,0.752,5.008,1.314c3.714,1.261,7.024,3.289,10.489,5.034c1.171,0.59,2.574,0.868,3.897,0.982
				c3.241,0.279,6.497,0.38,10.292,0.582c-7.656-8.954-13.419-18.558-16.783-29.662c-2.739,0.199-4.998,1.787-7.484,2.714
				c-1.109,0.414-2.257,0.755-3.417,0.988c-0.893,0.179-1.744-0.053-2.379-1.27c0.656-0.545,1.29-1.233,2.063-1.685
				c2.97-1.737,6.177-2.844,9.532-3.628c2.158-0.504,4.22-1.409,6.354-2.037c0.62-0.182,1.38-0.172,2,0.008
				c0.906,0.264,0.992,1.022,0.454,1.708c-0.685,0.871-1.481,1.655-2.014,2.24c1.043,3.48,1.863,6.794,3.059,9.967
				c0.629,1.671,1.904,3.103,2.905,4.631c0.784,1.195,1.604,2.365,2.391,3.559c0.526,0.797,0.974,1.65,1.541,2.416
				c1.895,2.559,3.827,5.089,5.742,7.627c2.53-1.474,15.22-18.912,16.775-23.164c-3.652-1-7.048,0.471-10.454,1.021
				c-0.667-1.86-0.462-2.638,0.911-3.208c3.236-1.343,6.541-1.826,10.045-1.053c2.427,0.536,4.814,1.061,6.925,2.44
				c0.334,0.218,0.684,0.418,0.993,0.669c0.697,0.566,1.041,1.415,0.566,2.114c-0.319,0.471-1.168,0.678-1.818,0.796
				c-0.419,0.076-0.917-0.195-1.363-0.36c-1.923-0.71-2.182-0.627-3.284,1.095c-0.858,1.34-1.715,2.682-2.589,4.012
				c-3.021,4.595-6.054,9.181-9.069,13.779c-0.425,0.649-0.775,1.347-1.368,2.387c1.645-0.267,2.935-0.294,4.092-0.699
				c3.151-1.102,6.236-2.39,9.368-3.549c1.333-0.494,2.735-0.802,4.075-1.279c1.48-0.527,2.942-1.116,4.384-1.741
				c4.505-1.952,9.002-3.923,13.49-5.913c0.987-0.438,1.924-0.986,3.024-1.557c-1.95-3.003-5.115-3.87-7.507-5.646
				c0.005-1.311,0.583-1.743,1.779-1.752c1.804-0.014,3.294,0.432,4.276,2.06c0.2,0.332,0.44,0.732,0.763,0.88
				c3.021,1.384,5.785,3.454,9.339,3.441c0.646-0.002,1.36,0.294,1.911,0.655c0.287,0.188,0.473,0.877,0.361,1.231
				c-0.109,0.345-0.625,0.708-1.017,0.784c-0.613,0.118-1.297,0.108-1.905-0.037c-2.791-0.665-5.385,0.271-7.908,1.124
				c-1.989,0.673-3.825,1.833-5.677,2.867c-2.356,1.316-4.591,2.866-7.007,4.051c-2.19,1.075-4.561,1.783-6.84,2.679
				c-4.52,1.778-9.244,2.761-13.99,3.682c-1.405,0.272-2.965,0.498-4.087,1.275c-1.244,0.861-2.02,2.372-3.083,3.523
				c-2.353,2.547-1.401,5.461-1.095,8.356c0.551,5.223,1.056,10.453,1.418,15.692c0.146,2.114-0.255,4.262-0.189,6.388
				c0.11,3.552,0.354,7.101,0.626,10.645c0.125,1.632,0.45,3.248,0.71,5.058c1.615-1.458,3.067-2.892,4.648-4.163
				c2.23-1.792,4.576-3.44,6.834-5.198c1.06-0.825,2.104-1.693,3.031-2.661c4.076-4.26,8.041-8.617,12.726-12.265
				c1.588-1.236,2.819-2.957,4.092-4.552c0.279-0.35,0.041-1.112,0.041-1.501c0.859-0.69,1.749-1.32,2.537-2.06
				c1.212-1.138,2.285-2.43,3.539-3.515c2.436-2.106,4.152-4.805,6.199-7.231c2.347-2.781,4.767-5.5,7.196-8.211
				c0.356-0.397,0.95-0.575,1.408-0.892c1.12-0.774,1.171-1.264,0.228-2.257c-0.655-0.689-1.348-1.342-2.006-2.028
				c-0.853-0.889-0.894-1.802,0.034-2.809c0.953,1.095,1.896,2.162,2.819,3.247c0.668,0.786,1.407,1.241,2.501,0.9
				c1.287-0.401,2.447,0.18,2.694,1.322c0.449,2.076,1.997,1.956,3.438,2.188c0.57,0.091,1.158,0.073,1.737,0.337
				c-1.764,0.757-3.622,1.041-5.421,0.745c-2.495-0.41-4.111,0.816-5.503,2.495c-2.387,2.877-4.563,5.933-7.014,8.751
				c-2.214,2.545-4.261,5.275-7.002,7.33c-0.354,0.266-0.611,0.66-0.728,1.361c1.202-0.28,2.42-0.502,3.602-0.85
				c4.481-1.319,8.918-2.804,13.438-3.974c2.653-0.687,5.432-0.881,8.151-1.321c3.035-0.49,6.065-1.008,9.092-1.512
				c-0.144-2.749-2.068-5.438-1.385-8.499c1.741-0.687,2.16,0.731,2.463,1.616c0.792,2.316,1.653,4.634,2.361,6.94
				c0.694,2.259,1.272,4.867,0.731,7.613c-2.629-0.865-1.73-3.874-3.794-4.994c-2.882-0.317-5.917,0.073-8.95,0.932
				c-7.493,2.121-15.013,4.147-22.534,6.172c-1.734,0.467-3.513,0.771-5.782,1.259c0.759,0.523,1.012,0.814,1.319,0.893
				c5.468,1.398,10.918,2.805,15.957,5.495c2.081,1.111,4.36,1.853,6.601,2.783c1.628-2.064,2.533-4.58,4.897-5.872
				c1.103,0.788,0.906,1.718,0.496,2.604c-1.013,2.187-2.085,4.347-3.135,6.517c-0.067,0.139-0.118,0.337-0.234,0.396
				c-3.073,1.576-4.217,4.848-6.368,7.232c-0.677,0.75-1.401,1.33-2.611,0.833c-0.749-2.039,0.725-3.339,1.736-4.786
				c0.668-0.956,1.371-1.887,2.12-2.914c-2.759-2.33-5.567-4.176-8.938-5.165c-1.509-0.442-2.971-1.19-4.311-2.03
				c-2.594-1.626-5.535-2.003-8.418-2.599c-1.294-0.268-2.482-0.001-3.567,0.923c-2.183,1.859-4.49,3.573-6.686,5.418
				c-1.867,1.569-3.688,3.198-5.458,4.875c-2.885,2.731-5.671,5.566-8.582,8.269c-1.271,1.18-2.768,2.112-4.115,3.214
				c-0.461,0.377-0.778,0.929-1.389,1.683c4.312-0.589,8.232-1.178,12.167-1.649c6.872-0.823,13.751-1.577,20.629-2.35
				c1.579-0.177,3.16-0.356,4.745-0.449c0.829-0.049,1.626,0.147,1.75,1.348c-1.341,1.567-3.159,2.151-5.231,2.193
				c-6.833,0.138-13.625,0.762-20.393,1.702c-4.851,0.674-9.716,1.248-14.572,1.889c-2.114,0.279-3.265,1.985-2.908,4.073
				c0.369,2.16,0.955,4.313,0.319,6.54c-0.12,0.419-0.056,1.002,0.15,1.386c1.723,3.204,1.664,6.637,1.672,10.147
				c0.006,2.599,0.729,5.191,1.036,7.798c0.145,1.23,0.057,2.488,0.082,3.733c0.011,0.552-0.028,1.116,0.073,1.652
				c0.453,2.41,0.939,4.813,1.439,7.214c0.061,0.291,0.275,0.549,0.514,1.006c3.27-0.684,6.515-1.348,9.75-2.053
				c0.531-0.116,1.026-0.404,1.53-0.629c1.518-0.677,2.957-1.4,4.77-1.25c1.011,0.084,2.181-0.47,3.12-1.014
				c3.055-1.768,6.223-2.75,9.793-2.113c0.586,0.104,1.251-0.138,1.862-0.291c2.47-0.617,4.944-1.22,7.394-1.907
				c2.44-0.685,4.855-1.46,7.278-2.205c0.378-0.116,0.883-0.178,1.085-0.447c1.529-2.032,3.832-1.669,5.891-1.882
				c2.162-0.224,4.233-0.482,6.062-1.825c0.609-0.448,1.471-0.561,2.225-0.801c1.787-0.569,4.029-1.892,4.091-4.085
				c0.066-2.334,1.25-4.517,2.872-6.531c0.715-0.888-0.132-1.437,0.369-2.429c0.941-1.863,1.857-3.735,2.8-5.597
				c1.165-2.3,2.355-4.592,3.517-6.893c0.689-1.365,1.284-2.763,2.031-4.108c0.719-1.292,2.234-1.711,3.849-1.689
				c2.179,0.028,0.172,0.95-0.269,2.671c-0.293,1.144-0.781,2.257-1.317,3.316c-1.359,2.684-2.851,5.302-4.179,8.001
				c-0.838,1.705-1.508,3.496-2.197,5.27c-0.759,1.952-1.415,3.944-2.189,5.889c-0.526,1.32-1.023,2.565-0.986,4.08
				c0.048,1.992,0.192,2.745,1.952,3.408c2.645,0.997,5.316,1.946,8.029,2.73c2.279,0.659,4.656,0.97,6.947,1.595
				c1.363,0.372,2.729,0.906,3.939,1.626c2.305,1.372,4.486,2.95,7.137,3.644c0.457,0.119,0.911,0.336,1.302,0.601
				c1.51,1.022,2.968,2.124,4.498,3.114c0.865,0.56,1.288,1.221,0.838,2.182c-0.435,0.93-1.375,1.322-2.214,0.926
				c-1.951-0.923-4.086-1.453-5.796-2.932c-1.067-0.923-2.383-1.59-3.656-2.237c-2.262-1.15-4.557-2.242-6.879-3.266
				c-0.934-0.412-1.963-0.643-2.971-0.846c-3.416-0.688-6.717-1.759-9.856-3.229c-3.384-1.584-6.806-1.915-10.434-1.18
				c-3.72,0.754-7.487,1.282-11.199,2.067c-2.478,0.524-4.937,1.207-7.332,2.031c-4.359,1.5-8.653,3.11-13.215,4.031
				c-4.58,0.924-9.043,2.422-13.561,3.659c-5.171,1.416-10.345,2.819-15.72,4.284c-0.102,1.014-0.297,2.194-0.326,3.379
				c-0.115,4.784-0.141,9.569-0.272,14.353c-0.12,4.373-0.296,8.744-0.523,13.112c-0.091,1.745-0.582,3.483-0.548,5.218
				c0.079,4.061,0.411,8.116,0.547,12.176c0.083,2.473-0.145,4.96,0.014,7.425c0.255,3.972,0.734,7.929,1.08,11.896
				c0.159,1.824,0.352,3.66,0.305,5.485c-0.055,2.17,0.175,4.236,0.771,6.344c0.599,2.114,0.735,4.359,1.084,6.545
				c0.061,0.383,0.172,0.757,0.286,1.244c2.111,0.201,4.029-0.479,5.804-1.229c3.081-1.3,6.099-2.524,9.525-2.674
				c1.88-0.082,3.79-0.61,5.588-1.223c4.681-1.594,9.567-2.232,14.366-3.272c1.3-0.282,12.847-1.332,14.734-1.623
				c0.976-0.151,15.168-1.661,18.946-2.541c0.967-0.225,2.028-0.982,2.595-1.806c1.524-2.213,2.785-4.606,4.188-6.905
				c1.03-1.687,2.22-3.243,2.731-5.247c0.302-1.185,1.279-2.183,1.847-3.317c0.672-1.343,1.23-2.743,1.839-4.117
				c0.095-0.215,0.156-0.466,0.308-0.632c2.887-3.164,5.77-6.332,8.692-9.462c0.874-0.936,1.878-1.731,3.458-1.442
				c0.288,1.548-0.568,2.616-1.55,3.475c-3.339,2.919-5.879,6.519-8.008,10.291c-1.274,2.259-2.808,4.472-3.737,6.836
				c-1.213,3.086-3.437,5.577-4.471,8.697c-0.17,0.513-0.247,1.056-0.454,1.969c1.379-0.081,2.77,0.239,3.627-0.296
				c1.65-1.032,3.427-0.744,5.125-1.08c1.716-0.34,3.486-0.394,5.218-0.667c2.042-0.322,4.086-0.667,6.097-1.137
				c4.382-1.025,8.765-2.06,13.105-3.244c2.125-0.58,4.221-1.366,6.212-2.307c2.262-1.069,4.617-0.626,7.166-1.135
				c-0.441,1.566-1.124,2.237-2.401,2.67c-3.55,1.202-7.117,2.222-10.813,2.938c-3.641,0.705-7.16,2.02-10.765,2.94
				c-2.614,0.668-5.274,1.167-7.928,1.673c-3.027,0.577-6.077,1.036-9.099,1.639c-0.89,0.178-1.716,0.672-2.737,1.088
				c0.76,1.496,1.927,1.979,3.159,2.236c1.625,0.34,3.027,0.946,4.02,2.349c0.218,0.309,0.585,0.574,0.941,0.716
				c3.772,1.51,6.427,4.967,10.469,5.997c1.314,1.875,3.505,2.525,5.289,3.735c2.409,1.633,4.385,3.978,7.706,4.141
				c1.319,0.064,2.595,1.137,3.877,1.778c0.842,0.422,1.678,0.861,2.483,1.349c1.976,1.196,3.953,0.698,5.946,0.076
				c2.337-0.73,4.67-1.477,7.023-2.155c4.659-1.343,9.324-2.669,14.002-3.941c1.06-0.289,2.182-0.391,3.282-0.477
				c2.845-0.221,5.592-0.622,7.792-2.732c0.42-0.403,1.146-0.575,1.759-0.673c1.638-0.262,3.295-0.404,4.939-0.637
				c1.25-0.178,2.525-0.304,3.727-0.661c2.673-0.793,5.33-1.654,7.949-2.607c2.156-0.785,4.238-1.772,6.373-2.618
				c3.023-1.198,6.073-2.332,9.097-3.529c0.953-0.377,1.841-0.917,2.791-1.303c1.469-0.598,2.958-1.147,4.453-1.675
				c0.596-0.21,1.322-0.167,1.826-0.491c0.699-0.45,1.065-1.392,2.198-1.076c1.252,0.35,2.864,1.29,3.791,2.454
				c-0.627,1.226-1.907,1.662-3.062,1.988c-3.665,1.035-7.239,2.308-11.05,2.957c-3.641,0.62-7.148,2.162-10.634,3.507
				c-3.047,1.177-5.927,2.797-8.989,3.925c-1.747,0.644-3.718,0.669-5.577,1.028c-0.826,0.159-1.626,0.45-2.436,0.686
				c-1.219,0.355-2.449,0.676-3.652,1.08c-2.712,0.91-5.356,2.094-8.128,2.738c-3.472,0.807-7.07,1.054-10.563,1.784
				c-3.322,0.694-6.58,1.697-10.079,2.62c0.307,1.232,0.612,2.127,0.738,3.046c0.167,1.208,0.883,1.863,1.949,2.173
				c1.583,0.461,3.225,0.743,4.778,1.284c2.127,0.742,4.27,1.043,6.523,1.049c1.229,0.004,2.51,0.443,3.673,0.916
				c3.525,1.435,7.242,1.726,10.96,2.167c2.901,0.344,5.753,1.085,8.638,1.594c2.247,0.396,4.525,0.622,6.759,1.074
				c4.112,0.832,8.235,1.609,12.11,3.368c1.93,0.876,3.935,1.619,6.196,1.366c1.403-0.157,2.855,0.07,4.281,0.176
				c1.311,0.097,2.114,0.911,2.729,1.981c-2.229,1.707-5.361,1.947-7.564,0.825c-0.887-0.452-1.957-0.571-2.958-0.763
				c-1.641-0.313-3.298-0.541-4.939-0.854c-0.454-0.087-0.971-0.246-1.294-0.549c-1.599-1.497-3.479-1.644-5.543-1.489
				c-1.23,0.092-2.492-0.221-3.738-0.367c-0.315-0.037-0.62-0.156-0.935-0.202c-2.672-0.386-5.318-0.726-7.874-1.798
				c-2.631-1.104-5.509-1.436-8.335-1.907c-4.064-0.677-8.087-1.604-12.138-2.367c-1.947-0.367-3.92-0.601-5.88-0.906
				c-0.23-0.036-0.538-0.069-0.66-0.223c-1.597-2.012-4.056-1.612-6.144-2.087c-2.149-0.489-4.06-0.908-5.265-3.07
				c-0.541-0.97-1.762-1.559-2.813-2.438c-1.613,0.958-3.155,1.874-4.612,2.74c0.091,1.183,0.459,1.774,1.157,2.455
				c2.329,2.272,4.473,4.737,6.651,7.159c0.291,0.323,0.51,0.822,0.536,1.253c0.145,2.351,1.365,4.141,2.73,5.954
				c1.768,2.347,3.293,4.875,4.957,7.302c2.021,2.948,3.968,5.955,6.14,8.789c4.604,6.005,9.529,11.764,13.834,17.998
				c0.946,1.37,1.702,2.87,2.598,4.276c0.46,0.724,1.036,1.374,1.674,2.207c3.069-1.116,6.015-2.282,9.027-3.24
				c1.336-0.425,2.802-0.462,4.215-0.617c5.62-0.616,11.246-1.178,16.862-1.82c3.691-0.422,7.076,0.886,10.553,1.702
				c3.108,2.598,7.22,3.247,10.547,5.424c0.465,0.304,0.979,0.54,1.49,0.763c2.429,1.056,4.415,0.339,4.821-2.194
				c0.249-1.551,1.264-2.064,2.12-2.888c0.443-0.426,1.065-0.666,1.707-1.05c1.011,0.629,1.097,1.423,0.51,2.39
				c-1.393,2.294-1.97,4.802-2.338,7.453c-0.193,1.389-1.074,2.82-1.998,3.941c-2.658,3.225-5.49,6.308-8.268,9.434
				c-0.878,0.988-1.577,2.255-3.284,2.253c-0.565-0.971-0.143-1.789,0.498-2.523c1.358-1.556,2.768-3.066,4.127-4.621
				c0.996-1.139,1.946-2.317,3.069-3.661c-2.647-1.931-5.113-3.924-7.773-5.612c-2.409-1.528-5.051-2.682-7.546-4.081
				c-1.079-0.605-2.003-1.484-3.073-2.108c-2.287-1.335-4.771-1.6-7.394-1.358c-2.688,0.248-5.395,0.338-8.095,0.377
				c-3.784,0.055-7.379,0.896-10.904,2.143c0.022,2.174,1.448,3.5,2.377,5.023c1.831,3.002,3.072,6.523,5.691,8.853
				c3.333,2.963,3.666,6.688,3.819,10.578c0.055,1.403,0.395,2.614,0.899,3.896C402.006,393.131,402.839,395.863,403.766,398.581z
				 M187.264,389.265c0.003,0.082,0.005,0.163,0.008,0.245c1.187-0.12,2.377-0.217,3.561-0.364c3.319-0.413,6.625-1.063,9.955-1.226
				c5.937-0.29,10.654-3.105,14.732-7.002c2.039-1.947,3.461-4.557,5.061-6.935c0.516-0.768,0.832-1.726,1.028-2.643
				c0.63-2.952,1.331-5.906,1.66-8.897c0.166-1.5,0.113-3.552-0.762-4.534c-1.984-2.229-4.514-3.981-6.886-5.845
				c-0.371-0.292-1.082-0.218-1.632-0.201c-1.67,0.052-3.338,0.204-5.008,0.235c-3.278,0.061-6.522,0.399-9.562,1.668
				c-1.823,0.761-3.65,1.654-5.213,2.835c-0.795,0.601-1.519,1.271-2.424,1.773c-2.148,1.191-4.396,2.3-6.288,3.832
				c-3.227,2.612-6.043,5.685-8.334,9.172c-1.345,2.047-3.008,3.955-3.417,6.499c-0.176,1.097-0.202,2.226-0.463,3.3
				c-0.969,3.988,1.618,7.965,6.379,8.078C182.192,389.314,184.729,389.265,187.264,389.265z M142.586,171.598
				c-0.249,0.998,0.083,1.464,0.98,1.474c0.899,0.01,1.226-0.469,1.013-1.474C143.918,171.598,143.269,171.598,142.586,171.598z"/>
			<path fill="#2D587B" d="M248.879,51.974c-1.361,0.054-1.732-0.798-1.814-1.962c-0.082-1.175,0.31-2.062,1.493-2.406
				c0.84-0.244,1.709-0.393,2.571-0.553c5.024-0.931,10.074-1.461,15.203-1.277c3.013,0.108,6.045-0.221,9.053-0.058
				c2.038,0.111,4.068,0.653,6.06,1.167c1.15,0.297,1.985,2.103,1.838,3.601c-0.182,1.846-0.927,3.375-2.688,4.229
				c-0.856,0.416-1.729,0.797-2.432,1.12c0.139,1.313,0.407,2.519,0.353,3.71c-0.052,1.144-0.756,1.983-1.733,2.713
				c-3.638,2.715-7.623,4.088-12.211,4.175c-6.05,0.114-12.094,0.593-18.14,0.914c-0.718,0.038-1.436,0.074-2.154,0.095
				c-1.488,0.043-2.212-0.405-2.308-1.411c-0.088-0.922,0.649-1.509,2.188-1.691c2.453-0.29,4.909-0.544,7.36-0.845
				c0.709-0.087,1.404-0.281,1.825-0.369c3.361-4.489,6.574-8.778,10.065-13.44c-1.691-0.212-3.054-0.567-4.401-0.511
				c-2.386,0.099-4.77,0.395-7.141,0.708C249.828,50.153,249.836,50.215,248.879,51.974z M277.798,49.656
				c-2.505,0-4.803,0.042-7.098-0.01c-3.273-0.074-4.706,0.938-5.808,4.365c0.765-0.08,1.547,0.032,2.133-0.256
				c2.367-1.166,4.897-1.083,7.397-1.063C276.517,52.71,277.146,52.315,277.798,49.656z M271.051,59.624
				c-3.21-1.553-8.588-0.904-9.867,1.19C264.066,62.223,269.248,61.598,271.051,59.624z"/>
			<path fill="#2D587B" d="M94.192,118.014c-1.763,8.784-4.71,16.762-9.174,24.139c-0.073,0.121-0.442,0.061-0.784,0.097
				c-0.487-1.05-0.081-1.996,0.264-2.943c1.927-5.304,4.061-10.541,4.918-16.177c0.284-1.865,0.806-3.694,1.263-5.735
				c-4.1-0.443-7.277,1.843-10.892,3.005c0.006-1.529,0.505-2.313,1.471-3.233c2.642-2.516,5.684-2.955,9.071-2.588
				c2.776,0.3,5.564,0.495,8.346,0.747c4.394,0.397,7.754,2.739,10.626,5.85c1.229,1.333,1.309,3.064,0.659,4.734
				c-0.433,1.11-0.913,2.241-1.591,3.209c-2.561,3.655-4.992,7.435-7.89,10.81c-3.045,3.547-7.095,5.563-11.91,5.74
				c-1.031,0.038-2.068,0.152-3.083,0.334c-5.516,0.991-10.949,0.448-16.316-0.929c-1.328-0.341-2.793-0.704-3.543-2.334
				c1.18-1.267,2.518-1.102,3.934-0.645c2.5,0.807,4.99,1.653,7.519,2.358c1.87,0.522,3.738,0.33,5.657-0.12
				c2.322-0.545,4.726-0.75,7.101-1.058c3.704-0.48,6.524-2.649,8.92-5.188c2.505-2.654,4.638-5.68,6.761-8.666
				c0.808-1.136,1.231-2.582,1.66-3.94c0.509-1.61-0.021-3.046-1.377-4.007c-1.161-0.824-2.396-1.728-3.733-2.079
				C99.624,118.755,97.078,118.496,94.192,118.014z"/>
			<path fill="#2D587B" d="M208.652,417.313c-2.184,0.16-4.366,0.404-6.553,0.461c-3.245,0.083-6.492,0.035-9.738,0.041
				c-0.399,0-0.804-0.053-1.198-0.011c-4.968,0.537-9.924,1.24-14.905,1.582c-3.761,0.258-7.41,0.953-11.055,1.801
				c-0.658,0.153-1.149,0.308-1.88-0.354c-1.27-1.15-3.083-0.611-4.542-0.311c-5.078,1.044-10.207,1.126-15.347,1.383
				c-3.768,0.189-7.548,0.68-11.256,1.388c-4.375,0.835-8.666,2.1-13.021,3.049c-0.732,0.16-1.64-0.255-2.407-0.555
				c-0.543-0.213-0.986-0.681-1.66-1.171c1.872-0.754,3.568-1.666,5.379-2.123c4.388-1.106,8.802-2.161,13.258-2.926
				c3.367-0.578,6.811-0.777,10.23-0.961c4.054-0.217,8.119-0.227,12.178-0.35c0.786-0.024,1.61-0.027,2.346-0.262
				c2.556-0.817,5.161-0.223,7.729-0.412c2.824-0.208,5.617-0.825,8.441-1.025c4.084-0.29,8.183-0.453,12.277-0.493
				c1.978-0.02,3.857,0.04,5.865-0.442c2.339-0.562,4.906-0.224,7.374-0.191c1.807,0.023,3.62,0.108,5.413,0.312
				c1.054,0.12,2.075,0.526,3.11,0.804C208.678,416.802,208.665,417.057,208.652,417.313z"/>
			<path fill="#2D587B" d="M476.128,377.684c1.409-2.648,2.113-5.518,2.268-8.534c0.113-2.217,0.225-4.436,0.314-6.654
				c0.015-0.377-0.084-0.758-0.162-1.395c-0.488,0.269-0.856,0.379-1.094,0.618c-1.745,1.752-3.574,3.439-5.155,5.331
				c-1.304,1.56-2.355,3.343-3.415,5.09c-0.524,0.864,0.152,2.275,1.41,2.564c1.598,0.366,1.844,1.849,2.723,2.786
				c0.268,0.286,0.226,1.189-0.029,1.577c-0.732,1.118-1.563,2.206-2.532,3.116c-0.357,0.335-1.211,0.141-1.84,0.188
				c0.179-1.38,0.657-2.545,0.368-3.471c-0.354-1.13-1.351-2.059-2.239-3.314c-0.908,0.739-1.557,1.282-2.221,1.803
				c-0.499,0.391-0.971,0.897-1.543,1.083c-0.44,0.143-1.181,0.032-1.485-0.271c-0.3-0.298-0.46-1.112-0.263-1.47
				c0.725-1.313,1.584-2.56,2.467-3.778c1.489-2.055,3.437-3.886,4.457-6.144c1.374-3.041,3.597-5.188,5.942-7.307
				c1.514-1.366,3.187-2.556,4.727-3.777c1.77,0.278,0.314,3.062,2.583,2.905c0.161-0.443,0.338-0.93,0.562-1.547
				c0.553,0.317,1.016,0.583,1.559,0.894c-0.11,0.519-0.182,0.977-0.305,1.42c-0.549,1.973-0.794,3.87-0.609,6.02
				c0.311,3.609-0.162,7.297-1.465,10.785c-0.525,1.404-0.94,2.85-1.473,4.251c-0.255,0.673-0.625,1.339-1.573,1.128
				c-0.935-0.207-0.867-0.829-0.914-1.622C477.148,379.25,476.568,378.572,476.128,377.684z"/>
			<path fill="#2D587B" d="M317.534,120.095c-0.678,0.418-1.131,0.863-1.665,1.002c-4.961,1.297-9.756,1.336-14.056-2.034
				c-0.43-0.336-1.042-0.477-1.396-0.865c-0.836-0.916-2.018-1.832-2.249-2.919c-0.455-2.144-0.488-4.354,0.349-6.57
				c0.87-2.303,1.436-4.708,2.836-6.797c1.599-2.383,3.465-4.395,6.503-4.735c1.008-0.113,2.07-0.059,3.066,0.133
				c1.079,0.208,2.11,0.666,3.466,1.116c0.034,1.111,0.131,2.346,0.089,3.576c-0.031,0.898-0.618,1.478-1.51,1.601
				c-1.018,0.141-1.65-0.4-2-1.329c-0.19-0.503-0.403-0.997-0.719-1.772c-1.712,0.724-3.299,1.388-4.879,2.07
				c-0.214,0.093-0.438,0.238-0.577,0.42c-2.248,2.937-3.357,6.296-3.298,9.957c0.015,0.916,0.647,2.097,1.376,2.676
				c2.72,2.16,5.688,3.882,9.398,3.308C314.049,118.656,315.725,118.756,317.534,120.095z"/>
			<path fill="#2D587B" d="M481.062,383.427c0.917-1.556,1.878-2.062,3.165-2.062c1.574,0,3.16-0.233,4.717-0.098
				c1.932,0.167,3.638-0.324,5.216-1.307c0.806-0.502,1.509-0.84,2.363-0.231c-0.09,2.2-0.802,3.449-2.774,3.858
				c-3.187,0.661-6.42,1.194-9.66,1.442C483.149,385.102,482.122,384.02,481.062,383.427z"/>
			<path fill="#2D587B" d="M463.914,386.26c-4.407,0.083-8.761,1.624-13.09-1.29c1.328-0.852,2.537-1.628,3.953-2.538
				c0.467,1.326,1.277,1.585,2.521,1.337c1.224-0.244,2.553-0.241,3.79-0.05c0.93,0.143,1.831,0.688,2.65,1.203
				C463.966,385.064,463.858,385.741,463.914,386.26z"/>
			<path fill="#2D587B" d="M208.71,357.888c-0.745,0.911-1.322,1.848-2.111,2.543c-3.558,3.137-6.276,6.966-9.039,10.759
				c-1.021,1.401-1.926,2.887-3.037,4.566c2.629,0.798,4.992,1.515,7.354,2.231c0.002,0.185,0.005,0.371,0.007,0.556
				c-0.443,0.217-0.885,0.621-1.328,0.622c-2.47,0.007-4.94-0.084-7.41-0.141c-1.038-0.024-2.126-0.258-3.104-0.025
				c-3.172,0.755-6.156-0.05-9.165-0.814c-0.463-0.117-0.917-0.275-1.383-0.377c-1.736-0.378-1.737-0.372-2.133-2.594
				c3.056-0.12,5.992,0.346,8.849,1.355c2.026,0.716,2.798,0.398,4.08-1.196c1.292-1.606,2.858-2.991,4.171-4.583
				c1.707-2.071,3.287-4.247,4.904-6.391c0.13-0.172,0.126-0.445,0.284-1.06c-1.903,0.678-3.656,1.115-5.224,1.915
				c-1.621,0.827-3.075,1.987-4.574,3.042c-1.004,0.707-0.982,0.738-2.607,0.421c-0.378-0.939,0.056-1.488,0.676-2.258
				c1.413-1.755,3.403-2.313,5.293-3.156c1.444-0.644,2.798-1.5,4.267-2.069c1.099-0.426,2.32-0.53,3.48-0.804
				c1.803-0.425,3.474-1.111,4.922-2.321C206.538,357.562,207.273,356.952,208.71,357.888z"/>
		</g>
		<path fill="#2D587B" d="M102.396,39.615c-0.383,0.807-0.68,1.432-1.162,2.447c5.449-0.706,9.868-3.075,14.436-5.874
			c0.285,0.942,0.491,1.502,0.621,2.08c0.36,1.6,0.721,1.882,2.289,1.583c0.623-0.119,1.214-0.46,1.836-0.517
			c0.526-0.047,1.18,0.016,1.597,0.297c1.666,1.124,3.2,0.589,4.702-0.255c4.245-2.386,7.545-5.791,10.417-9.673
			c1.274-1.723,2.769-3.286,4.014-5.028c2.221-3.107,4.308-6.31,6.495-9.442c0.682-0.978,1.432-1.934,2.295-2.747
			c0.38-0.358,1.253-0.606,1.66-0.407c0.408,0.199,0.672,1.006,0.71,1.566c0.04,0.598-0.187,1.249-0.423,1.824
			c-1.577,3.844-3.553,7.438-6.438,10.495c-1.023,1.084-1.855,2.35-2.572,3.883c1.072-0.332,2.135-0.695,3.218-0.986
			c1.07-0.288,2.158-0.689,3.242-0.706c1.729-0.025,2.265,0.898,1.638,2.506c-0.318,0.815-0.712,1.6-1.226,2.741
			c0.816,0.075,1.467,0.145,2.119,0.192c0.796,0.059,1.597,0.073,2.39,0.154c1.721,0.175,2.479,0.864,2.084,2.446
			c-0.464,1.86,1.157,2.823,1.514,4.314c0.097,0.406,1.678,0.69,2.549,0.628c1.901-0.135,3.783-0.54,5.676-0.805
			c0.288-0.041,0.598,0.073,1.152,0.151c-0.918,1.534-2.405,2.044-3.646,2.519c-1.579,0.604-3.379,0.668-5.096,0.855
			c-1.181,0.129-2.381,0.072-3.574,0.093c-0.396,0.007-0.798,0.034-1.189-0.013c-2.178-0.259-2.997-1.788-2.027-3.758
			c0.869-1.767,0.869-1.767,0.748-2.799c-1.496-0.739-2.977-0.136-4.434,0.156c-2.896,0.58-3.647-0.184-2.869-3.07
			c0.098-0.362,0.269-0.704,0.532-1.377c-1.71,0.583-2.907,1.308-3.655,2.532c-1.026,1.68-1.839,3.491-2.86,5.175
			c-1.316,2.172-2.714,4.297-4.146,6.395c-0.613,0.899-1.574,0.919-2.829,0.572c0.419-4.042,2.96-7.432,3.616-11.649
			c-0.979,0.782-1.741,1.445-2.558,2.031c-2.132,1.531-4.286,3.032-6.436,4.539c-1.636,1.146-3.519,1.45-5.451,1.568
			c-0.317,0.02-0.775,0.115-0.935-0.051c-1.62-1.681-3.468-0.446-5.433-0.382c-0.634-0.984-1.296-2.012-1.996-3.097
			c-2.473,1.214-5.09,2.514-7.72,3.788c-2.417,1.17-4.757,1.214-7.378,0.265c-1.372-0.497-3.254,0.012-4.791,0.46
			c-3.271,0.953-5.346,0.251-7.203-2.723c-0.266-0.426-0.772-0.722-1.21-1.015c-0.494-0.33-1.036-0.587-1.498-0.843
			c1.016-2.098,1.923-3.97,2.83-5.842c-0.133-0.083-0.266-0.166-0.399-0.249c-0.298,0.222-0.659,0.393-0.883,0.673
			c-1.244,1.55-2.454,3.127-3.678,4.692c-0.147,0.188-0.393,0.34-0.455,0.55c-0.962,3.261-4.119,4.711-5.987,7.235
			c-0.91,1.229-2.268,1.965-4.018,1.443c-1.438-0.429-2.361-1.245-2.754-2.686c-0.797-2.921-0.77-5.829,0.13-8.723
			c0.373-1.2,0.766-2.394,1.197-3.737c-4.064-0.278-7.488,2.051-11.531,2.129c0.515-1.3,1.313-2.103,2.417-2.487
			c3.005-1.045,6.022-2.067,9.076-2.959c0.97-0.284,1.75-0.61,2.344-1.45c0.782-1.104,1.631-2.163,2.491-3.209
			c0.74-0.902,1.535-1.76,2.325-2.658c1.568,1.734,1.544,1.803,0.393,3.051c-0.739,0.801-1.376,1.695-2.181,2.699
			c4.148-0.285,7.984-0.549,11.82-0.812c1.848-0.127,2.53-1.6,3.118-2.956c0.862-1.986,2.557-2.934,4.147-4.04
			c2,1.741,1.894,2.284-1.322,6.66c3.179,0.551,6.342-0.479,9.322,0.354c0,0.339,0.047,0.513-0.007,0.643
			c-0.521,1.24-2.136-0.032-2.434,0.827c-0.41,1.179-1.142,1.091-1.984,1.088c-1.597-0.006-3.194-0.074-4.79-0.049
			c-2.806,0.043-3.457,0.595-3.944,3.354c-0.252,1.429-0.297,2.852,0.456,4.197c1.911,3.417,5.638,4.231,8.691,1.666
			C99.109,38.774,100.485,38.676,102.396,39.615z M84.929,31.444c-1.058,0-1.689-0.019-2.319,0.004
			c-2.423,0.086-4.735,1.006-7.283,0.428c-2.003-0.455-2.994,0.553-3.59,2.645c-0.328,1.149-0.691,2.295-0.912,3.466
			c-0.548,2.905-0.84,5.813,0.517,8.713c0.46-0.129,1.03-0.121,1.339-0.4C77.373,42.051,80.863,36.815,84.929,31.444z"/>
		<path fill="#2D587B" d="M33.063,30.41c-3.165-1.168-4.103-3.753-5.27-6.019c-0.482-0.937,0.575-1.752,1.448-2.153
			c1.299-0.596,2.654-1.081,4.012-1.537c1.854-0.622,3.575-1.558,5.722-1.258c2.208,0.308,3.121,0.721,2.936,3.017
			c-0.272,3.375-0.369,6.886-2.457,9.82c-2.193,3.082-3.493,6.565-4.912,10.03c-1.116,2.726-2.958,5.066-5.339,6.918
			c-1.055,0.82-2.071,0.857-3.015-0.027c-0.975-0.914-1.855-1.931-2.75-2.928c-0.633-0.706-1.23-1.445-1.823-2.185
			c-0.617-0.77-1.127-1.602-0.493-2.585c0.499-0.773,1.695-0.827,2.781,0c0.942,0.717,1.745,1.618,2.594,2.453
			c0.664,0.653,1.304,1.329,1.929,1.968c3.41-2.461,10.237-18.179,10.475-24.082c-3.29-0.058-5.77,1.62-8.145,3.215
			C30.809,27.206,33.154,28.011,33.063,30.41z"/>
	</g>
</g>
<g id="Grid">
</g>
</svg>
