<?xml version="1.0" encoding="utf-8"?>
<!-- Generator: Adobe Illustrator 16.0.0, SVG Export Plug-In . SVG Version: 6.00 Build 0)  -->
<!DOCTYPE svg PUBLIC "-//W3C//DTD SVG 1.1//EN" "http://www.w3.org/Graphics/SVG/1.1/DTD/svg11.dtd">
<svg version="1.1" id="Layer_1" xmlns="http://www.w3.org/2000/svg" xmlns:xlink="http://www.w3.org/1999/xlink" x="0px" y="0px"
	 width="840.641px" height="90.038px" viewBox="-1061.521 301.646 840.641 90.038"
	 enable-background="new -1061.521 301.646 840.641 90.038" xml:space="preserve">
<g>
	<g>
		<path fill="#FFFFFF" d="M-220.881,318.353L-220.881,318.353c0,0,0,0-0.007,0C-220.881,318.353-220.881,318.353-220.881,318.353
			L-220.881,318.353z"/>
		<path fill="#FFFFFF" d="M-220.888,318.353c-9.22,0-16.695-7.479-16.695-16.706c0,9.227-7.479,16.706-16.706,16.706l0,0l0,0
			c9.227,0,16.706,7.479,16.706,16.705C-237.583,325.832-230.106,318.353-220.888,318.353z"/>
	</g>
	<g>
		<polygon fill="#FFFFFF" points="-886.005,332.47 -924.667,332.47 -924.667,344.449 -911.326,344.449 -911.326,390.736 
			-911.326,390.736 -899.346,390.736 -899.346,344.449 -886.005,344.449 		"/>
		<path fill="#FFFFFF" d="M-1061.521,390.736L-1061.521,390.736V332.47h23.311c5.244-0.002,10.047,2.143,13.477,5.582l0,0
			c3.44,3.431,5.586,8.233,5.583,13.477l0,0c0.003,5.244-2.143,10.048-5.583,13.478l0,0c-3.43,3.441-8.233,5.584-13.477,5.582l0,0
			h-11.33v20.148l0,0H-1061.521L-1061.521,390.736z M-1038.86,358.608c1.974-0.002,3.706-0.784,5.006-2.075l0,0
			c1.291-1.3,2.071-3.031,2.073-5.006l0,0c-0.002-1.973-0.783-3.705-2.073-5.005l0,0c-1.3-1.29-3.032-2.07-5.006-2.075l0,0h-10.68
			v14.161H-1038.86L-1038.86,358.608z"/>
		<path fill="#FFFFFF" d="M-990.353,332.47h-12.714l-20.689,58.267h12.698l4.309-11.38h19.932l4.272,11.38h12.685L-990.353,332.47z
			 M-1003.117,368.138l6.385-18.821l6.323,18.821H-1003.117z"/>
		<path fill="#FFFFFF" d="M-934.206,361.246c-3.292-2.857-7.489-4.311-14.098-5.304c-4.149-0.8-8.968-1.585-8.968-6.732
			c0-4.102,3.846-6.423,7.55-6.423c4.941,0,7.921,3.378,8.782,6.423l10.75-4.597c-0.911-3.134-2.759-5.983-5.419-8.287
			c-3.681-3.185-8.521-4.939-13.632-4.939c-5.173,0-10.605,1.648-14.115,4.64c-3.847,3.281-5.965,7.964-5.965,13.183
			c0,4.991,1.933,9.577,5.59,12.75c3.292,2.857,8.467,4.644,14.097,5.304c3.271,0.386,8.969,1.912,8.969,7.085
			c0,4.216-3.847,5.936-7.552,5.936c-4.5,0-8.215-3.021-8.781-6.422l-10.873,4.146c0.861,3.309,2.757,6.32,5.543,8.732
			c3.681,3.188,8.521,4.942,13.632,4.942c5.173,0,10.604-1.647,14.113-4.642c3.849-3.281,5.967-7.961,5.967-13.18
			C-928.617,368.871-930.55,364.42-934.206,361.246z"/>
	</g>
	<g>
		<path fill="#FFFFFF" d="M-784.889,390.736l-8.25-23.703c0.854-0.613,1.652-1.291,2.388-2.027c3.44-3.43,5.586-8.232,5.584-13.478
			c0.002-5.244-2.144-10.046-5.584-13.477c-3.43-3.439-8.233-5.584-13.477-5.582h-23.311v58.267h11.979v-20.148h10.974l7.012,20.148
			H-784.889z M-815.558,344.451h10.68c1.975,0.002,3.706,0.782,5.006,2.072c1.29,1.3,2.07,3.032,2.073,5.005
			c-0.002,1.975-0.783,3.706-2.073,5.006c-1.301,1.291-3.031,2.072-5.006,2.075h-10.68V344.451z"/>
		<polygon fill="#FFFFFF" points="-646.968,344.449 -646.968,332.47 -683.65,332.47 -683.65,390.736 -646.968,390.736 
			-646.968,378.758 -671.671,378.758 -671.671,367.594 -646.968,367.594 -646.968,355.612 -671.671,355.612 -671.671,344.449 		"/>
		<polygon fill="#FFFFFF" points="-740.148,344.451 -740.148,332.47 -776.832,332.47 -776.832,390.736 -740.148,390.736 
			-740.148,378.758 -764.853,378.758 -764.853,367.594 -740.148,367.594 -740.148,355.612 -764.853,355.612 -764.853,344.451 		"/>
		<path fill="#FFFFFF" d="M-877.699,390.736L-877.699,390.736V332.47h23.311c5.244-0.002,10.047,2.143,13.478,5.582l0,0
			c3.439,3.431,5.586,8.233,5.583,13.477l0,0c0.003,5.244-2.144,10.048-5.583,13.478l0,0c-3.431,3.441-8.233,5.584-13.478,5.582l0,0
			h-11.331v20.148l0,0H-877.699L-877.699,390.736z M-855.039,358.608c1.974-0.002,3.706-0.784,5.006-2.075l0,0
			c1.29-1.3,2.069-3.031,2.072-5.006l0,0c-0.003-1.973-0.782-3.705-2.072-5.005l0,0c-1.3-1.29-3.032-2.07-5.006-2.075l0,0h-10.681
			v14.161H-855.039L-855.039,358.608z"/>
		<polygon fill="#FFFFFF" points="-546.163,332.47 -584.825,332.47 -584.825,344.451 -571.484,344.451 -571.484,390.736 
			-559.504,390.736 -559.504,344.451 -546.163,344.451 		"/>
		<polygon fill="#FFFFFF" points="-592.995,332.47 -604.977,332.47 -604.977,367.154 -624.784,332.47 -637.03,332.47 
			-637.03,390.736 -625.05,390.736 -625.05,356.306 -605.376,390.736 -592.995,390.736 		"/>
		<path fill="#FFFFFF" d="M-697.001,361.246c-3.291-2.857-7.489-4.311-14.098-5.304c-4.15-0.8-8.968-1.585-8.968-6.732
			c0-4.102,3.847-6.423,7.55-6.423c4.941,0,7.921,3.378,8.782,6.423l10.749-4.597c-0.911-3.134-2.759-5.983-5.419-8.287
			c-3.682-3.185-8.521-4.939-13.632-4.939c-5.173,0-10.604,1.648-14.114,4.64c-3.847,3.281-5.966,7.964-5.966,13.183
			c0,4.991,1.932,9.577,5.589,12.75c3.293,2.857,8.467,4.644,14.098,5.304c3.271,0.386,8.968,1.912,8.968,7.085
			c0,4.216-3.846,5.936-7.551,5.936c-4.5,0-8.215-3.021-8.782-6.422l-10.873,4.146c0.862,3.309,2.758,6.32,5.544,8.732
			c3.681,3.188,8.521,4.942,13.632,4.942c5.173,0,10.604-1.647,14.113-4.642c3.849-3.281,5.967-7.961,5.967-13.18
			C-691.411,368.871-693.344,364.42-697.001,361.246z"/>
	</g>
	<g>
		<path fill="#FFFFFF" d="M-299.846,390.736l-8.249-23.703c0.854-0.613,1.651-1.291,2.388-2.027
			c3.439-3.43,5.584-8.232,5.581-13.478c0.003-5.244-2.142-10.046-5.581-13.477c-3.432-3.439-8.233-5.584-13.478-5.582h-23.311
			v58.267h11.979v-20.148h10.975l7.01,20.148H-299.846z M-330.515,344.451h10.68c1.974,0.002,3.705,0.782,5.006,2.072
			c1.29,1.3,2.07,3.032,2.073,5.005c-0.003,1.975-0.783,3.706-2.073,5.006c-1.301,1.291-3.032,2.072-5.006,2.075h-10.68V344.451z"/>
		<polygon fill="#FFFFFF" points="-255.105,344.451 -255.105,332.47 -291.787,332.47 -291.787,390.736 -255.105,390.736 
			-255.105,378.758 -279.809,378.758 -279.809,367.594 -255.105,367.594 -255.105,355.612 -279.809,355.612 -279.809,344.451 		"/>
		<polygon fill="#FFFFFF" points="-403.01,332.47 -441.674,332.47 -441.674,344.449 -428.331,344.449 -428.331,390.736 
			-416.353,390.736 -416.353,344.449 -403.01,344.449 		"/>
		<polygon fill="#FFFFFF" points="-501.381,344.449 -501.381,332.47 -538.064,332.47 -538.064,390.736 -526.085,390.736 
			-526.085,367.594 -501.381,367.594 -501.381,355.612 -526.085,355.612 -526.085,344.449 		"/>
		<path fill="#FFFFFF" d="M-364.142,332.47h11.979v34.157c0.005,13.08-6.6,24.928-21.659,24.928l0,0c-0.008,0-0.018,0-0.027,0l0,0
			c-15.068,0.002-21.675-11.844-21.668-24.928l0,0V332.47h11.98v34.157c0.007,8.08,3.169,12.943,9.686,12.949l0,0
			c6.521-0.006,9.699-4.869,9.708-12.949L-364.142,332.47z"/>
		<path fill="#FFFFFF" d="M-461.118,332.47h11.979l0.001,34.157c0.005,13.08-6.601,24.928-21.66,24.928l0,0
			c-0.007,0-0.018,0-0.024,0l0,0c-15.069,0.002-21.677-11.844-21.67-24.928l0,0V332.47h11.979l0.001,34.157
			c0.006,8.08,3.167,12.943,9.684,12.949l0,0c6.521-0.006,9.699-4.869,9.709-12.949L-461.118,332.47L-461.118,332.47z"/>
	</g>
</g>
</svg>
