<?xml version="1.0" encoding="utf-8"?>
<!-- Generator: Adobe Illustrator 16.0.0, SVG Export Plug-In . SVG Version: 6.00 Build 0)  -->
<!DOCTYPE svg PUBLIC "-//W3C//DTD SVG 1.1//EN" "http://www.w3.org/Graphics/SVG/1.1/DTD/svg11.dtd">
<svg version="1.1" xmlns="http://www.w3.org/2000/svg" xmlns:xlink="http://www.w3.org/1999/xlink" x="0px" y="0px"
	 width="858.378px" height="96.457px" viewBox="0 0 858.378 96.457" enable-background="new 0 0 858.378 96.457"
	 xml:space="preserve">
<symbol  id="THe_orchardist" viewBox="-272.655 -238.569 545.775 477.475">
	<g>
		
			<text transform="matrix(1 0 0 -1 -272.6133 203.7515)" fill="#9D3040" font-family="'Archer-Book'" font-size="42" letter-spacing="-1">The Orchardist</text>
	</g>
	<polygon fill="none" points="-269.604,186.421 270.396,186.421 270.396,-238.569 -269.604,-238.569 	"/>
	<text transform="matrix(1 0 0 -1 -269.6055 165.8311)"><tspan x="0" y="0" fill="#626464" font-family="'Archer-Light'" font-size="29">A Novel, subtitle goes here</tspan><tspan x="0" y="38" fill="#626464" font-family="'ProximaNovaT-Thin'" font-size="21">I told him about the nucleotides, the genetic test, the prognosis. </tspan><tspan x="0" y="66" fill="#626464" font-family="'ProximaNovaT-Thin'" font-size="21">I told him that atrophying of basal ganglia starts years before </tspan><tspan x="0" y="94" fill="#626464" font-family="'ProximaNovaT-Thin'" font-size="21">symptoms present, and that right now – in this car, in this </tspan><tspan x="0" y="122" fill="#626464" font-family="'ProximaNovaT-Thin'" font-size="21">moment – parts of my brain were dying, parts that I didn’t know I </tspan><tspan x="0" y="150" fill="#626464" font-family="'ProximaNovaT-Thin'" font-size="21">needed, but parts that I would never, never be able to get back. I </tspan><tspan x="0" y="178" fill="#626464" font-family="'ProximaNovaT-Thin'" font-size="21">told him that there wasn’t an emotion or an impulse or a </tspan><tspan x="0" y="206" fill="#626464" font-family="'ProximaNovaT-Thin'" font-size="21">stumble that I could completely trust; I told him that one day – if </tspan><tspan x="0" y="234" fill="#626464" font-family="'ProximaNovaT-Thin'" font-size="21">I let it – everything I did and said and thought would be nothing </tspan><tspan x="0" y="262" fill="#626464" font-family="'ProximaNovaT-Thin'" font-size="21">more than the entropic implosion of a condemned building or a </tspan><tspan x="0" y="290" fill="#626464" font-family="'ProximaNovaT-Thin'" font-size="21">dying star.</tspan></text>
</symbol>
<symbol  id="archer_4_" viewBox="-105.487 -40.31 178.313 62.174">
	<g>
		<g>
			<g>
				
					<text transform="matrix(1 0 0 -1 -96.7559 -35.9854)" fill="#8D8C8C" font-family="'Scout-Regular'" font-size="17.2976" letter-spacing="2">FOUNDATION</text>
			</g>
			<g>
				<path fill="#CA571F" d="M-46.555,5.065c0.692-1.106,0.767-2.303,0.767-2.766v-12.497h-3.741v-3.139h11.235v3.139h-3.853v12.59
					c0,3.081-1.932,8.294-9.172,8.294c-2.704,0-5.012-1.3-7.056-3.976l-0.189-0.249v15.403h-7.438v-3.139h3.797v-28.924h-3.797
					v-3.139h11.18v3.139h-3.742V-0.15c0,5.257,4.675,7.438,7.178,7.438C-49.103,7.289-47.478,6.541-46.555,5.065z"/>
				<path fill="#CA571F" d="M-16.663-10.627c0.99-1.923,3.352-3.072,6.315-3.072c2.537,0,5.288,1.198,6.491,2.355
					c0.82,0.819,1.265,1.739,1.265,2.659c0,1.595-1.155,2.798-2.687,2.798c-1.297,0-2.239-0.966-2.239-2.296
					c0-0.554,0.171-1.086,0.481-1.5l0.073-0.097L-7.07-9.838c-0.821-0.457-2.173-0.74-2.956-0.74c-1.509,0-2.785,0.566-3.252,1.441
					c-0.319,0.572-0.404,1.925-0.404,2.56V7.099h7.315v3.14h-7.315v7.209l-3.585-1.424v-5.786h-4.412v-3.14h4.412V-7.38
					C-17.267-8.753-17.069-9.816-16.663-10.627z"/>
				<polygon fill="#CA571F" points="-67.616,7.099 -67.616,10.239 -78.404,10.239 -78.404,7.099 -74.364,7.099 -78.771,-7.265 
					-85.447,7.559 -87.376,7.559 -94.109,-7.264 -98.514,7.099 -94.698,7.099 -94.698,10.239 -105.487,10.239 -105.487,7.099 
					-102.016,7.099 -95.465,-13.336 -93.543,-13.336 -86.551,2.002 -79.615,-13.336 -77.462,-13.336 -70.969,7.099 				"/>
				<polygon fill="#CA571F" points="-34.342,10.239 -34.342,7.099 -30.321,7.099 -30.321,-10.198 -34.342,-10.198 -34.342,-13.336 
					-22.659,-13.336 -22.659,-10.198 -26.679,-10.198 -26.679,10.239 				"/>
				<path fill="#CA571F" d="M-28.975,21.84c-1.609,0-3.021-1.412-3.021-3.021c0-1.607,1.358-2.965,2.966-2.965
					c1.579,0,2.964,1.386,2.964,2.965C-26.066,20.428-27.425,21.84-28.975,21.84z"/>
				<polygon fill="#CA571F" points="0.333,10.239 0.333,7.099 4.354,7.099 4.354,-10.198 0.333,-10.198 0.333,-13.336 
					12.016,-13.336 12.016,-10.198 7.995,-10.198 7.995,10.239 				"/>
				<path fill="#CA571F" d="M5.699,21.84c-1.609,0-3.021-1.412-3.021-3.021c0-1.607,1.358-2.965,2.965-2.965
					c1.58,0,2.966,1.386,2.966,2.965C8.609,20.428,7.25,21.84,5.699,21.84z"/>
				<path fill="#CA571F" d="M35.566,5.393C36.465,4.187,36.6,2.73,36.6,1.969v-12.167h-3.742v-3.139h11.18v3.139h-3.797v12.59
					c0,6.547-5.773,8.294-9.184,8.294c-3.229,0-5.164-1.572-7.074-3.931l-0.188-0.232v3.716h-7.438v-3.14h3.797v-17.297h-3.797
					v-3.139h11.18v3.139h-3.741V-0.15c0,5.099,4.292,7.474,7.192,7.474C33.069,7.324,34.609,6.674,35.566,5.393z"/>
				<path fill="#CA571F" d="M67.437,10.239L67.437,10.239l-2.107,0V6.882l-0.028,0.05c-1.23,2.175-4.385,3.754-7.502,3.754
					c-3.301,0-6.31-1.304-8.473-3.672c-2.066-2.262-3.204-5.263-3.204-8.45c0-7.018,5.778-11.871,11.175-11.871
					c3.017,0,5.658,1.421,7.849,3.952l0.186,0.214v-4.195c0-2.973-1.61-8.085-7.477-8.085c-2.95,0-4.378,0.738-4.746,0.964
					l-0.099,0.061l0.07,0.093c0.31,0.413,0.481,0.946,0.481,1.5c0,1.33-0.941,2.295-2.239,2.295c-1.532,0-2.687-1.203-2.687-2.798
					c0-0.958,0.415-1.878,1.198-2.661c1.274-1.226,4.052-2.538,8.021-2.538c7.952,0,11.118,5.745,11.118,11.898V7.099h3.854v3.14
					H67.437z M57.951-9.938l-0.042,0c-4.772,0.031-8.33,3.846-8.33,8.557c0,4.991,3.571,8.643,8.554,8.643
					c2.988,0,7.197-2.834,7.197-8.186C65.331-6.173,61.579-9.938,57.951-9.938z"/>
			</g>
		</g>
	</g>
</symbol>
<symbol  id="footer_1_1_" viewBox="-800 -58 1600 153">
	<polygon fill="#B6B6B6" points="800,-58 -800,-58 -800,95 800,95 	"/>
	<text transform="matrix(1 0 0 -1 46.9155 -24)" fill="#FFFFFF" font-family="'ProximaNova-Regular'" font-size="11">PRIVACY &amp; TERMS </text>
	<text transform="matrix(1 0 0 -1 193.6841 -23.9995)" fill="#FFFFFF" font-family="'ProximaNova-Regular'" font-size="11">© MRS GILES WHITING FOUNDATION</text>
	<text transform="matrix(1 0 0 -1 429.1099 -23.9995)" fill="#FFFFFF" font-family="'ProximaNova-Regular'" font-size="11">Site by PASTPRESENTFUTURE</text>
	<text transform="matrix(1 0 0 -1 -585 58)"><tspan x="0" y="0" fill="#FFFFFF" font-family="'ProximaNova-Bold'" font-size="13" letter-spacing="1">FOUNDATION</tspan><tspan x="0" y="19" fill="#FFFFFF" font-family="'ProximaNova-Regular'" font-size="11">HISTORY</tspan><tspan x="0" y="34" fill="#FFFFFF" font-family="'ProximaNova-Regular'" font-size="11">PEOPLE</tspan><tspan x="0" y="49" fill="#FFFFFF" font-family="'ProximaNova-Regular'" font-size="11">CONTACT</tspan></text>
	<text transform="matrix(1 0 0 -1 -456 58)"><tspan x="0" y="0" fill="#FFFFFF" font-family="'ProximaNova-Bold'" font-size="13" letter-spacing="1">LITERATURE</tspan><tspan x="0" y="19" fill="#FFFFFF" font-family="'ProximaNova-Regular'" font-size="11">Whiting Awards</tspan><tspan x="0" y="34" fill="#FFFFFF" font-family="'ProximaNova-Regular'" font-size="11">ABOUT</tspan><tspan x="0" y="49" fill="#FFFFFF" font-family="'ProximaNova-Regular'" font-size="11">WINNERS</tspan><tspan x="0" y="64" fill="#FFFFFF" font-family="'ProximaNova-Regular'" font-size="11">NEWS &amp; NEW WORK</tspan><tspan x="0" y="79" fill="#FFFFFF" font-family="'ProximaNova-Regular'" font-size="11">KEYNOTES</tspan><tspan x="0" y="94" fill="#FFFFFF" font-family="'ProximaNova-Regular'" font-size="11">OTHER PROGRAMS</tspan></text>
	<g>
		<path fill="#FFFFFF" d="M513,62v-2h-2v-3h2v-8h3v8h2.63c0,0,0.219,1,0.324,3H516v2.031c0,0.287,0.692-0.031,1.067-0.031H519v3
			h-2.613c-3.643,0-3.254-2.673-3.254-3.095"/>
		<path fill="#FFFFFF" d="M552.296,63.413c-0.691-0.306-1.436-0.514-2.213-0.606c0.795,0.477,1.405,1.231,1.693,2.132
			c-0.744-0.441-1.568-0.762-2.447-0.935c-0.853,0.91-2.147,1.405-3.541,1.15c-1.74-0.318-3.065-1.883-3.123-3.651
			c-0.011-0.349,0.021-0.69,0.1-1.015c-3.204,0.161-6.042,1.695-7.944,4.027c-0.332-0.57-0.522-1.232-0.522-1.938
			c0-1.337,0.547-2.516,1.581-3.207c-0.633,0.021-0.878,0.193-1.878,0.482c0-0.016,0-0.032,0-0.049c0-1.867,1.46-3.424,3.223-3.778
			c-0.322-0.088-0.596-0.135-0.947-0.135c-0.25,0-0.457,0.023-0.691,0.068c0.49-1.53,1.93-2.645,3.615-2.676
			c-1.317-1.034-2.971-1.649-4.776-1.649c-0.312,0-0.614,0.018-0.914,0.054c1.704-1.093,3.73-1.731,5.906-1.731
			c7.088,0,10.966,5.872,10.966,10.965c0,0.167-0.003,0.333-0.012,0.498C551.125,61.963,551.778,62.641,552.296,63.413"/>
		<path fill="#FFFFFF" d="M585,50h-19v14h19V50z"/>
		<path fill="none" stroke="#B6B6B6" stroke-width="1.1761" stroke-miterlimit="10" d="M585.631,64.139L575.5,55.607l-10.131,8.531"
			/>
		<path fill="none" stroke="#B6B6B6" stroke-width="1.1761" stroke-miterlimit="10" d="M577.153,57l8.478-7.393 M565.369,49.607
			L573.847,57"/>
	</g>
	<text transform="matrix(1 0 0 -1 -294 58)"><tspan x="0" y="0" fill="#FFFFFF" font-family="'ProximaNova-Bold'" font-size="13" letter-spacing="1">HUMANITIES</tspan><tspan x="0" y="19" fill="#FFFFFF" font-family="'ProximaNova-Regular'" font-size="11">About</tspan><tspan x="0" y="34" fill="#FFFFFF" font-family="'ProximaNova-Regular'" font-size="11">past programs</tspan></text>
	<polygon fill="#FFFFFF" points="576.833,67.667 576.833,67.667 576.833,68.167 576.833,68.167 	"/>
	<polygon display="none" fill="none" points="-800,95 800,95 800,-58 -800,-58 	"/>
</symbol>
<symbol  id="news_text" viewBox="-182.57 -60.908 365.142 121.026">
	<polygon fill="none" points="-182.57,57.579 182.572,57.579 182.572,-60.908 -182.57,-60.908 	"/>
	<text transform="matrix(1 0 0 -1 -182.5703 43.3779)"><tspan x="0" y="0" fill="#626464" font-family="'ProximaNova-Semibold'" font-size="20">Margaret Talbot on Roald Dahl in The New </tspan><tspan x="0" y="24" fill="#626464" font-family="'ProximaNova-Semibold'" font-size="20">Yorker </tspan><tspan x="58.52" y="24" fill="#626464" font-family="'Archer-BookItalic'" font-size="15.0727">August 29, 2014</tspan><tspan x="0" y="52" fill="#626464" font-family="'ProximaNovaT-Thin'" font-size="15">In “Meant for Kids,” Margaret Talbot (Whiting 1999) writes </tspan><tspan x="0" y="72" fill="#626464" font-family="'ProximaNovaT-Thin'" font-size="15">on the meaning of Penguin’s rebranding of Roald Dahl’s </tspan><tspan x="0" y="92" fill="#626464" font-family="'ProximaNovaT-Thin'" font-size="15">Charlie and the Chocolate Factory in The New...  </tspan><tspan x="299.916" y="92" fill="#8D8C8C" font-family="'ProximaNova-Bold'" font-size="12" letter-spacing="1">More &gt;</tspan></text>
</symbol>
<g id="Art">
	<g id="orchardist_unit_1_5_col">
	</g>
	<g id="footer_1">
	</g>
	<g id="archer">
	</g>
	<g id="New_Symbol">
		<g id="archer_1_">
		</g>
	</g>
	<g id="archer_2_">
	</g>
	<g id="New_Symbol_1">
	</g>
	<g id="New_Symbol_4">
	</g>
	<g>
		<g>
			<path fill="#FFFFFF" d="M858.385,8.098L858.385,8.098c0,0,0,0-0.007,0C858.385,8.098,858.385,8.098,858.385,8.098L858.385,8.098z
				"/>
			<path fill="#FFFFFF" d="M858.378,8.098c-9.22,0-16.696-7.479-16.696-16.706c0,9.227-7.479,16.706-16.706,16.706l0,0l0,0
				c9.227,0,16.706,7.479,16.706,16.705C841.682,15.577,849.158,8.098,858.378,8.098z"/>
		</g>
		<g>
			<polygon fill="#FFFFFF" points="193.261,22.215 154.597,22.215 154.597,34.194 167.938,34.194 167.938,80.482 167.939,80.482 
				179.919,80.482 179.919,34.194 193.261,34.194 			"/>
			<path fill="#FFFFFF" d="M17.744,80.482L17.744,80.482V22.215h23.311c5.244-0.002,10.047,2.143,13.477,5.582l0,0
				c3.44,3.431,5.586,8.233,5.583,13.477l0,0c0.003,5.244-2.143,10.047-5.583,13.478l0,0c-3.43,3.441-8.233,5.584-13.477,5.582l0,0
				h-11.33v20.148l0,0H17.744L17.744,80.482z M40.405,48.355c1.974-0.002,3.706-0.785,5.006-2.075l0,0
				c1.291-1.3,2.071-3.032,2.073-5.006l0,0c-0.002-1.973-0.783-3.705-2.073-5.005l0,0c-1.3-1.29-3.032-2.07-5.006-2.075l0,0h-10.68
				v14.161H40.405L40.405,48.355z"/>
			<path fill="#FFFFFF" d="M88.913,22.215H76.199L55.51,80.482h12.698l4.309-11.38h19.932l4.272,11.38h12.685L88.913,22.215z
				 M76.148,57.883l6.385-18.821l6.323,18.821H76.148z"/>
			<path fill="#FFFFFF" d="M145.059,50.991c-3.292-2.857-7.489-4.31-14.097-5.303c-4.15-0.8-8.968-1.585-8.968-6.732
				c0-4.102,3.846-6.423,7.55-6.423c4.941,0,7.921,3.378,8.782,6.423l10.75-4.597c-0.911-3.134-2.759-5.983-5.419-8.287
				c-3.681-3.185-8.521-4.939-13.632-4.939c-5.173,0-10.605,1.648-14.115,4.64c-3.847,3.281-5.965,7.964-5.965,13.183
				c0,4.99,1.933,9.577,5.59,12.751c3.292,2.857,8.467,4.643,14.097,5.303c3.27,0.386,8.968,1.912,8.968,7.085
				c0,4.216-3.846,5.935-7.551,5.935c-4.5,0-8.215-3.02-8.782-6.422l-10.872,4.147c0.861,3.309,2.757,6.321,5.543,8.733
				c3.681,3.187,8.521,4.942,13.632,4.942c5.173,0,10.605-1.648,14.113-4.642c3.849-3.281,5.967-7.961,5.967-13.18
				C150.648,58.617,148.715,54.166,145.059,50.991z"/>
		</g>
		<g>
			<path fill="#FFFFFF" d="M294.377,80.482l-8.25-23.704c0.854-0.612,1.652-1.29,2.388-2.026c3.44-3.431,5.585-8.233,5.583-13.478
				c0.002-5.244-2.143-10.046-5.583-13.477c-3.43-3.439-8.234-5.584-13.477-5.582h-23.311v58.267h11.98V60.334h10.974l7.011,20.148
				H294.377z M263.708,34.197h10.68c1.974,0.002,3.706,0.782,5.005,2.072c1.29,1.3,2.071,3.032,2.074,5.005
				c-0.002,1.974-0.784,3.706-2.074,5.006c-1.3,1.29-3.031,2.072-5.005,2.075h-10.68V34.197z"/>
			<polygon fill="#FFFFFF" points="432.297,34.194 432.297,22.215 395.614,22.215 395.614,80.482 432.297,80.482 432.297,68.504 
				407.595,68.504 407.595,57.34 432.297,57.34 432.297,45.358 407.595,45.358 407.595,34.194 			"/>
			<polygon fill="#FFFFFF" points="339.116,34.197 339.116,22.215 302.433,22.215 302.433,80.482 339.116,80.482 339.116,68.504 
				314.413,68.504 314.413,57.34 339.116,57.34 339.116,45.358 314.413,45.358 314.413,34.197 			"/>
			<path fill="#FFFFFF" d="M201.566,80.482L201.566,80.482l0-58.267h23.311c5.244-0.002,10.047,2.143,13.477,5.582l0,0
				c3.44,3.431,5.586,8.233,5.583,13.477l0,0c0.003,5.244-2.143,10.047-5.583,13.478l0,0c-3.43,3.441-8.233,5.584-13.477,5.582l0,0
				h-11.331v20.148l0,0H201.566L201.566,80.482z M224.226,48.355c1.974-0.002,3.706-0.785,5.006-2.075l0,0
				c1.29-1.3,2.07-3.032,2.073-5.006l0,0c-0.003-1.973-0.783-3.705-2.073-5.005l0,0c-1.3-1.29-3.032-2.07-5.006-2.075l0,0h-10.68
				v14.161H224.226L224.226,48.355z"/>
			<polygon fill="#FFFFFF" points="533.102,22.215 494.44,22.215 494.44,34.197 507.78,34.197 507.78,80.482 519.762,80.482 
				519.762,34.197 533.102,34.197 			"/>
			<polygon fill="#FFFFFF" points="486.27,22.215 474.289,22.215 474.289,56.9 454.48,22.215 442.234,22.215 442.234,80.482 
				454.216,80.482 454.216,46.051 473.89,80.482 486.27,80.482 			"/>
			<path fill="#FFFFFF" d="M382.265,50.991c-3.292-2.857-7.49-4.31-14.098-5.303c-4.15-0.8-8.968-1.585-8.968-6.732
				c0-4.102,3.847-6.423,7.55-6.423c4.941,0,7.921,3.378,8.782,6.423l10.749-4.597c-0.911-3.134-2.759-5.983-5.419-8.287
				c-3.681-3.185-8.521-4.939-13.632-4.939c-5.172,0-10.604,1.648-14.114,4.64c-3.847,3.281-5.966,7.964-5.966,13.183
				c0,4.99,1.932,9.577,5.589,12.751c3.293,2.857,8.467,4.643,14.098,5.303c3.27,0.386,8.968,1.912,8.968,7.085
				c0,4.216-3.846,5.935-7.551,5.935c-4.5,0-8.215-3.02-8.782-6.422l-10.873,4.147c0.862,3.309,2.757,6.321,5.543,8.733
				c3.681,3.187,8.522,4.942,13.632,4.942c5.173,0,10.605-1.648,14.114-4.642c3.848-3.281,5.966-7.961,5.966-13.18
				C387.854,58.617,385.921,54.166,382.265,50.991z"/>
		</g>
		<g>
			<path fill="#FFFFFF" d="M779.42,80.482l-8.249-23.704c0.854-0.612,1.651-1.29,2.387-2.026c3.44-3.431,5.584-8.233,5.582-13.478
				c0.002-5.244-2.142-10.046-5.582-13.477c-3.431-3.439-8.233-5.584-13.477-5.582h-23.311v58.267h11.98V60.334h10.974l7.01,20.148
				H779.42z M748.751,34.197h10.68c1.973,0.002,3.705,0.782,5.005,2.072c1.29,1.3,2.071,3.032,2.074,5.005
				c-0.003,1.974-0.784,3.706-2.074,5.006c-1.3,1.29-3.032,2.072-5.005,2.075h-10.68V34.197z"/>
			<polygon fill="#FFFFFF" points="824.159,34.197 824.159,22.215 787.478,22.215 787.478,80.482 824.159,80.482 824.159,68.504 
				799.457,68.504 799.457,57.34 824.159,57.34 824.159,45.358 799.457,45.358 799.457,34.197 			"/>
			<polygon fill="#FFFFFF" points="676.256,22.215 637.591,22.215 637.591,34.194 650.934,34.194 650.934,80.482 662.913,80.482 
				662.913,34.194 676.256,34.194 			"/>
			<polygon fill="#FFFFFF" points="577.884,34.194 577.884,22.215 541.201,22.215 541.201,80.482 553.181,80.482 553.181,57.34 
				577.884,57.34 577.884,45.358 553.181,45.358 553.181,34.194 			"/>
			<path fill="#FFFFFF" d="M715.124,22.215h11.979v34.157c0.005,13.081-6.599,24.928-21.659,24.928l0,0c-0.008,0-0.017,0-0.027,0
				l0,0c-15.069,0.002-21.675-11.844-21.668-24.928l0,0V22.215h11.98v34.157c0.007,8.081,3.169,12.944,9.686,12.949l0,0
				c6.52-0.005,9.699-4.868,9.708-12.949L715.124,22.215z"/>
			<path fill="#FFFFFF" d="M618.146,22.215h11.98l0.001,34.157c0.005,13.081-6.601,24.928-21.66,24.928l0,0
				c-0.007,0-0.018,0-0.025,0l0,0c-15.069,0.002-21.677-11.844-21.67-24.928l0,0V22.215h11.98l0.001,34.157
				c0.006,8.081,3.167,12.944,9.683,12.949l0,0c6.521-0.005,9.7-4.868,9.709-12.949V22.215z"/>
		</g>
	</g>
</g>
<g id="Grid">
</g>
</svg>
